<?xml version="1.0" standalone="no"?>
<!DOCTYPE svg PUBLIC "-//W3C//DTD SVG 20010904//EN"
 "http://www.w3.org/TR/2001/REC-SVG-20010904/DTD/svg10.dtd">
<svg version="1.0" xmlns="http://www.w3.org/2000/svg"
 width="445.000000pt" height="445.000000pt" viewBox="0 0 445.000000 445.000000"
 preserveAspectRatio="xMidYMid meet">
<metadata>
Created by potrace 1.14, written by Peter Selinger 2001-2017
</metadata>
<g transform="translate(0.000000,445.000000) scale(0.100000,-0.100000)"
fill="#000000" stroke="none">
<path d="M2378 3771 c-31 -16 -59 -27 -62 -23 -4 3 -49 7 -101 8 -87 2 -97 0
-110 -19 -13 -19 -18 -20 -48 -9 -18 7 -44 12 -58 12 -27 0 -89 -35 -89 -50 0
-5 -7 -10 -15 -10 -8 0 -23 -8 -33 -17 -35 -35 -78 -57 -111 -58 -22 0 -37 -6
-45 -19 -16 -27 -131 -136 -167 -158 -16 -10 -27 -22 -24 -28 3 -5 -2 -13 -11
-18 -8 -5 -18 -27 -21 -51 -4 -32 -12 -45 -29 -53 -27 -13 -41 -45 -25 -61 7
-7 2 -16 -19 -29 -17 -10 -30 -26 -30 -37 0 -11 -4 -23 -10 -26 -5 -3 -10 -15
-10 -25 0 -19 -45 -50 -73 -50 -14 0 -57 -41 -57 -54 0 -5 -11 -17 -24 -27
-14 -11 -23 -29 -23 -44 -1 -14 -6 -32 -13 -41 -8 -8 -15 -26 -16 -40 -1 -13
-12 -36 -23 -50 -18 -23 -19 -30 -8 -57 7 -18 12 -52 12 -77 0 -40 -3 -45 -26
-50 -56 -11 -99 -72 -99 -141 0 -31 26 -63 43 -52 6 4 8 1 5 -8 -3 -8 0 -23 8
-33 10 -14 10 -23 2 -36 -26 -40 38 -65 97 -38 19 9 31 8 49 -2 13 -7 29 -9
35 -6 6 4 27 1 47 -6 29 -10 37 -10 43 1 6 8 19 10 45 6 25 -5 36 -4 36 4 0 9
13 10 43 6 23 -4 53 -2 68 3 17 7 31 7 44 -1 30 -16 104 -9 159 16 56 26 66
25 111 -8 47 -35 116 -67 131 -61 8 3 23 0 34 -6 14 -9 25 -9 43 -1 22 10 29
8 52 -13 14 -13 30 -24 36 -24 14 0 11 -96 -5 -134 -18 -43 -20 -44 -97 -47
-65 -2 -166 -21 -207 -39 -17 -7 -43 -5 -100 10 -129 35 -298 23 -394 -26 -30
-15 -32 -15 -157 49 -69 36 -144 72 -166 80 -22 8 -92 34 -156 57 l-117 42 4
77 c3 42 14 127 25 189 23 121 37 149 19 36 -16 -93 -23 -271 -12 -278 5 -3
10 20 11 52 1 31 4 70 7 87 13 73 35 169 39 174 7 7 6 -8 -9 -75 -7 -34 -13
-102 -13 -150 l-1 -89 8 95 c9 102 11 113 35 197 21 73 27 64 9 -12 -16 -67
-25 -244 -15 -290 5 -20 9 10 13 85 13 248 113 495 301 745 57 76 183 208 256
268 57 47 26 42 -46 -7 l-68 -46 45 40 c25 22 64 53 87 68 49 31 58 50 13 27
-56 -29 -30 -8 43 36 39 23 79 49 87 57 12 13 11 14 -10 7 -76 -24 -275 -157
-378 -253 -34 -32 -62 -55 -62 -51 0 11 141 136 227 201 43 32 129 84 192 116
70 35 116 65 121 77 12 32 35 46 81 51 38 3 114 42 104 52 -2 3 -37 -6 -77
-18 -644 -195 -1088 -785 -1092 -1450 -1 -171 5 -243 33 -366 115 -515 492
-940 991 -1118 78 -29 204 -60 280 -71 25 -3 58 -8 75 -11 69 -12 350 -4 405
11 8 2 31 7 50 10 252 42 548 194 754 387 258 241 415 533 477 888 20 110 17
392 -5 510 -36 198 -129 429 -241 594 -173 257 -434 468 -708 571 -79 29 -77
29 -77 11 0 -16 21 -26 54 -26 12 0 50 -25 88 -57 36 -32 110 -86 165 -120 54
-34 118 -81 143 -103 44 -41 44 -41 5 -12 -59 44 -233 152 -244 152 -16 0 -23
-19 -13 -36 5 -9 11 -14 14 -12 7 4 118 -85 118 -95 0 -14 34 -44 57 -51 12
-4 23 -13 25 -21 2 -8 37 -49 79 -92 189 -194 307 -407 362 -650 13 -57 13
-64 -3 -78 -9 -8 -34 -40 -56 -70 -21 -30 -42 -55 -46 -55 -5 0 -7 26 -6 58
l1 57 6 -45 c6 -48 18 -45 16 5 -4 66 -21 174 -30 183 -3 3 -13 -2 -22 -11
-10 -8 -22 -16 -28 -17 -5 0 -9 -13 -8 -28 1 -25 3 -37 17 -104 4 -16 7 -46 9
-67 3 -53 11 -42 13 20 4 68 14 76 14 11 0 -27 3 -57 6 -66 4 -11 -27 -49
-103 -126 l-110 -109 -47 14 c-67 20 -178 24 -239 8 -29 -7 -92 -27 -141 -44
-86 -30 -92 -30 -208 -23 -115 6 -119 7 -139 35 -34 48 -50 98 -56 180 l-6 79
59 -2 c61 -2 166 25 195 49 8 7 23 13 32 13 8 0 22 6 29 13 7 8 26 17 42 21
16 4 43 21 60 39 17 17 37 32 44 33 8 2 16 5 19 7 2 3 23 -3 46 -14 55 -25
125 -24 157 1 26 21 60 27 60 11 0 -5 7 -17 16 -26 15 -15 18 -15 41 0 14 9
31 14 39 11 8 -3 21 5 30 19 10 15 26 25 40 25 12 0 26 5 29 10 4 6 25 22 47
36 40 26 68 73 68 117 0 29 -49 77 -78 77 -31 0 -53 30 -69 92 -18 70 -38 98
-68 98 -17 0 -29 9 -40 30 -20 38 -19 47 5 55 14 4 20 15 20 35 0 19 -7 33
-20 40 -11 6 -20 20 -20 30 0 11 -4 20 -10 20 -5 0 -10 6 -10 13 0 7 -18 30
-39 51 -29 28 -45 37 -60 33 -13 -3 -21 0 -21 7 0 17 -30 76 -38 76 -4 0 -22
14 -40 31 -25 24 -40 30 -62 27 l-28 -4 5 51 c5 51 5 52 -38 89 -24 20 -53 39
-64 41 -74 14 -72 13 -110 89 -46 94 -86 123 -177 131 -56 5 -69 2 -120 -24z
m116 -10 c3 -4 -6 -6 -19 -3 -14 2 -25 6 -25 8 0 8 39 4 44 -5z m60 -6 c8 -8
19 -15 24 -15 14 0 82 -94 82 -113 0 -9 5 -19 10 -22 6 -4 8 -10 5 -15 -8 -13
41 -39 68 -35 17 4 36 -4 62 -25 21 -17 42 -30 48 -30 6 0 7 -21 3 -56 -7 -62
3 -85 34 -77 19 5 89 -41 117 -77 16 -20 14 -80 -4 -80 -7 0 -13 4 -13 9 0 5
-10 7 -22 3 -14 -3 -19 -2 -14 6 4 7 0 15 -8 18 -9 3 -13 10 -10 15 3 5 -12
10 -33 10 l-38 2 35 7 c21 4 27 8 15 9 l-20 2 20 9 c18 8 18 9 -5 10 l-25 2
25 8 c23 7 23 8 -10 10 -33 2 -33 3 -10 10 21 7 18 8 -18 9 -26 1 -41 5 -37
11 6 9 -10 14 -42 13 -20 -1 -15 7 10 17 19 8 17 9 -18 11 l-40 2 35 7 c29 6
31 8 10 9 -23 2 -24 3 -5 11 l20 9 -20 1 -20 1 20 9 c18 8 18 9 -5 10 -23 1
-23 2 -5 10 l20 9 -20 1 c-14 2 -11 5 10 10 l30 8 -35 2 -35 2 30 8 30 8 -28
1 c-16 0 -26 5 -22 11 4 6 -8 10 -29 10 -19 0 -38 5 -41 10 -3 6 -18 10 -32
10 -21 0 -24 2 -13 15 10 13 9 15 -11 15 -19 0 -21 2 -9 10 13 9 13 10 0 10
-13 0 -13 1 0 10 12 8 9 10 -12 10 -19 0 -28 5 -28 16 0 9 5 12 12 8 7 -4 8
-3 4 4 -4 7 -15 12 -24 12 -15 0 -15 2 -2 10 12 8 12 10 -5 10 -17 0 -17 2 -5
10 12 8 8 10 -15 11 -29 1 -30 1 -5 9 18 6 20 8 7 9 -12 1 -16 5 -11 14 6 9 4
9 -8 -1 -14 -11 -16 -10 -13 5 2 10 4 19 4 21 3 7 22 0 35 -13z m-350 -52
c-10 -7 -23 -13 -28 -13 -6 0 -4 5 4 10 12 8 11 10 -7 10 -25 0 -27 -21 -3
-32 10 -5 7 -7 -10 -8 -23 -1 -23 -2 -5 -10 l20 -9 -20 -1 c-11 -2 -24 -2 -29
-1 -5 1 -6 -5 -3 -12 3 -9 -1 -14 -11 -13 -9 0 -17 -6 -17 -14 0 -10 -12 -16
-35 -18 l-35 -3 41 38 c23 21 49 51 58 66 15 24 23 27 57 25 36 -2 39 -3 23
-15z m-221 -14 c-24 -12 -43 -25 -43 -29 0 -4 -8 -11 -17 -14 -10 -3 -1 10 19
29 21 19 48 35 60 35 18 0 13 -5 -19 -21z m-85 -51 c-2 -6 -13 -16 -23 -22
-11 -6 -25 -17 -33 -23 -7 -7 -19 -13 -25 -12 -7 0 -1 8 13 17 13 9 31 25 40
34 18 19 33 23 28 6z m-118 -69 c0 -5 -9 -9 -21 -9 -11 0 -17 -4 -14 -10 3 -5
-1 -10 -9 -10 -16 0 -11 29 7 42 12 8 37 -1 37 -13z m266 -26 c-22 -4 -26 -7
-15 -14 10 -6 6 -9 -16 -9 -23 0 -27 -3 -15 -10 10 -7 -7 -10 -58 -10 -46 0
-71 -4 -67 -10 3 -6 -1 -7 -9 -4 -9 3 -16 1 -16 -5 0 -6 -7 -8 -17 -4 -11 4
-14 3 -9 -5 4 -7 2 -12 -3 -12 -6 0 -11 5 -11 10 0 6 -5 10 -11 10 -5 0 -8 -4
-5 -8 2 -4 -4 -14 -16 -21 -13 -8 -18 -9 -13 -1 4 7 -1 7 -14 -2 -24 -15 -28
-33 -5 -24 8 3 12 2 9 -4 -3 -6 -14 -10 -23 -11 -14 0 -13 -2 3 -9 17 -7 16
-9 -10 -10 -26 -1 -27 -3 -10 -10 17 -7 14 -9 -15 -10 -29 -1 -32 -3 -15 -10
18 -8 17 -9 -8 -9 -16 -1 -26 -5 -22 -11 3 -5 0 -10 -7 -11 -7 -1 -2 -5 12 -9
l25 -8 -25 -2 c-24 -2 -23 -3 5 -10 l30 -8 -27 -1 c-15 0 -30 -6 -34 -13 -4
-6 -3 -8 4 -5 5 4 21 3 34 -2 22 -10 11 -16 -22 -12 -9 2 -6 -4 8 -14 12 -9
26 -14 31 -10 5 3 12 1 16 -5 3 -5 -3 -10 -14 -10 -12 0 -21 -6 -21 -12 0 -10
-2 -10 -9 0 -4 7 -14 14 -22 16 -51 9 -58 16 -47 49 6 18 15 36 19 42 5 5 9
17 9 27 0 10 5 18 10 18 6 0 10 4 10 9 0 31 147 148 174 138 7 -3 18 -1 23 4
5 5 38 11 75 13 36 2 74 8 84 14 11 6 33 11 49 10 l30 -1 -29 -4z m-338 -21
c-10 -2 -18 -7 -18 -10 0 -4 -10 -13 -22 -21 -19 -11 -17 -7 6 17 16 17 34 28
40 24 7 -4 4 -8 -6 -10z m803 -50 c21 2 33 -1 32 -8 -1 -6 8 -10 20 -9 41 5
66 -12 73 -49 3 -20 3 -44 -1 -53 -5 -10 -9 -24 -11 -31 -4 -20 -9 -23 -27
-16 -26 10 -29 34 -4 35 21 0 21 1 2 9 l-20 9 20 0 c17 1 17 3 5 11 -13 9 -13
10 0 11 8 0 4 5 -10 9 -18 6 -20 8 -7 9 10 1 15 6 12 11 -4 6 -11 8 -16 5 -5
-4 -9 -2 -9 4 0 5 6 12 13 14 11 5 -37 11 -56 8 -5 -1 -6 3 -2 9 4 6 -6 10
-23 10 -37 0 -101 25 -81 32 8 3 23 -1 35 -9 12 -7 36 -12 55 -11z m-881 -17
c-7 -8 -17 -15 -22 -15 -6 0 -5 7 2 15 7 8 17 15 22 15 6 0 5 -7 -2 -15z m-37
-43 c-10 -11 -21 -17 -24 -15 -4 1 -10 -8 -13 -22 -4 -14 -11 -25 -16 -25 -5
0 -7 -9 -5 -20 2 -11 -1 -20 -6 -20 -6 0 -7 -4 -4 -10 3 -5 1 -10 -4 -10 -32
0 11 103 51 125 33 19 40 18 21 -3z m104 -78 c-3 -3 -12 -4 -19 -1 -8 3 -5 6
6 6 11 1 17 -2 13 -5z m-177 -59 c0 -8 -44 -45 -53 -45 -6 0 1 11 14 24 23 23
39 32 39 21z m1061 -7 c39 -13 149 -98 149 -114 0 -6 9 -21 20 -34 22 -25 26
-40 10 -40 -5 0 -10 5 -10 10 0 6 -7 10 -16 10 -8 0 -12 5 -9 10 3 6 -4 10
-17 11 -22 0 -22 1 -3 9 17 7 16 9 -10 10 -30 2 -30 2 -5 10 14 4 18 8 10 9
-8 1 -21 10 -28 21 -7 11 -22 20 -35 20 -16 0 -18 3 -9 9 15 9 -12 20 -58 22
-23 1 -23 2 5 9 29 7 28 8 -10 9 -23 0 -45 5 -50 10 -6 5 -21 11 -35 14 -15 2
-6 5 21 6 25 0 61 -4 80 -11z m559 -115 c49 -62 59 -81 47 -91 -9 -8 -22 -3
-45 18 -22 19 -28 30 -20 33 7 3 0 6 -17 7 -26 1 -27 3 -10 10 18 8 18 9 -5 9
-20 1 -22 3 -10 11 12 8 10 10 -10 11 l-25 1 25 8 c22 7 20 8 -15 10 -35 2
-37 3 -15 10 24 7 24 8 5 16 -19 8 -19 8 4 14 25 6 45 -10 91 -67z m-1550 26
c0 -5 -13 -12 -30 -15 -16 -4 -30 -10 -30 -15 0 -5 -13 -9 -30 -9 -16 0 -30
-4 -30 -10 0 -5 -9 -10 -20 -10 -11 0 -20 -5 -20 -11 0 -6 7 -8 16 -5 8 3 12
2 9 -4 -3 -6 -13 -10 -21 -10 -8 0 -12 -4 -9 -10 3 -5 -2 -10 -12 -11 -16 0
-16 -1 2 -9 l20 -9 -20 -1 -20 -1 20 -9 20 -9 -20 -1 -20 -1 20 -9 c14 -6 16
-9 5 -10 -8 -1 -4 -6 10 -10 25 -8 25 -8 -5 -10 -26 -1 -27 -3 -10 -10 19 -8
18 -9 -5 -11 l-25 -2 25 -5 25 -5 -25 -8 c-25 -7 -25 -7 -2 -8 13 -1 21 -5 18
-10 -3 -5 -16 -7 -28 -3 -14 3 -19 2 -14 -6 4 -7 0 -12 -11 -13 -10 0 -13 -3
-6 -5 7 -3 9 -12 6 -21 -5 -12 -1 -14 15 -8 29 9 28 -3 0 -15 -21 -8 -21 -9
-3 -10 17 0 17 -2 5 -10 -13 -8 -12 -10 3 -10 10 0 16 -4 12 -9 -3 -5 9 -12
27 -14 32 -4 31 -4 -7 -6 -36 -3 -37 -4 -15 -11 18 -6 20 -8 7 -9 -14 -1 -17
-6 -12 -22 5 -16 2 -22 -15 -26 -14 -4 -18 -8 -10 -13 7 -5 2 -9 -14 -12 -22
-5 -24 -3 -15 15 17 31 13 84 -11 124 -17 29 -19 41 -11 57 6 12 13 35 14 51
4 31 5 35 44 124 12 29 23 59 23 67 0 8 20 15 58 19 31 4 63 10 69 14 20 11
53 11 53 0z m1459 -73 c10 -9 21 -16 25 -16 18 0 78 -70 103 -120 16 -30 35
-56 43 -56 8 -1 21 -2 28 -3 6 0 12 -7 12 -15 0 -8 4 -16 9 -18 14 -5 25 -78
12 -78 -6 0 -11 5 -11 10 0 6 -8 10 -17 11 -12 0 -13 2 -5 6 20 8 -17 32 -53
34 -30 1 -30 1 -5 9 21 7 12 15 -12 11 -5 0 -8 6 -8 14 0 9 -10 15 -22 16 -22
1 -22 1 2 9 19 6 9 9 -40 10 -56 2 -60 4 -30 10 30 6 31 8 10 10 -19 2 -15 5
15 10 22 4 30 8 18 9 -12 0 -25 6 -28 11 -3 6 -16 10 -28 10 -20 0 -20 0 -1
15 18 14 18 14 -6 16 l-25 1 25 8 c25 8 25 8 -5 10 -26 1 -27 3 -10 10 13 6
15 9 5 9 -13 1 -13 2 0 11 12 8 9 10 -13 10 -16 0 -26 4 -22 10 4 6 -8 10 -27
11 -27 0 -30 2 -13 9 17 7 17 9 3 9 -10 1 -18 5 -18 10 0 13 69 -5 89 -23z
m-52 -22 c-3 -3 -12 -4 -19 -1 -8 3 -5 6 6 6 11 1 17 -2 13 -5z m28 -64 c-3
-5 -12 -10 -18 -10 -7 0 -6 4 3 10 19 12 23 12 15 0z m-1744 -19 c-6 -10 -7
-21 -4 -25 3 -3 1 -6 -6 -6 -7 0 -9 -4 -6 -10 3 -5 -2 -10 -12 -10 -24 0 -29
-40 -5 -41 15 -1 14 -2 -1 -6 -10 -3 -16 -11 -13 -18 2 -7 -3 -16 -12 -20 -14
-5 -14 -7 -2 -15 12 -8 11 -10 -5 -11 l-20 0 20 -9 c18 -8 18 -9 -5 -9 -20 -1
-22 -3 -10 -11 13 -9 13 -12 0 -23 -8 -6 -16 -29 -17 -51 0 -21 -7 -43 -13
-50 -10 -8 -11 -6 -7 13 3 12 1 34 -6 48 -7 17 -8 27 0 31 5 4 13 21 17 37 4
17 15 38 24 48 9 10 15 31 14 47 -1 18 4 34 16 42 9 7 25 25 35 41 20 30 33
37 18 8z m1453 -80 c16 -6 35 -10 43 -7 7 3 13 2 13 -3 0 -5 11 -12 24 -15 29
-7 86 -62 86 -82 0 -9 -10 -14 -27 -13 -25 0 -26 1 -8 9 18 8 18 9 -5 9 -20 1
-22 3 -10 11 12 7 8 10 -15 11 -26 0 -27 2 -10 9 17 7 16 9 -10 9 -23 1 -27 4
-15 11 11 7 7 10 -20 11 -19 1 -41 2 -47 2 -7 -1 -11 3 -8 7 3 5 -12 11 -32
14 -111 16 -134 18 -146 8 -7 -6 -28 -13 -47 -15 -19 -3 -57 -17 -84 -31 -27
-15 -50 -25 -52 -23 -2 2 8 10 24 18 15 7 35 21 45 31 10 10 28 18 40 19 12 0
38 6 57 13 41 16 162 14 204 -3z m-524 -37 c0 -2 -21 -4 -47 -3 -37 1 -42 3
-23 8 24 7 70 3 70 -5z m1294 -70 c3 -8 2 -12 -4 -9 -6 3 -10 10 -10 16 0 14
7 11 14 -7z m-321 -18 c29 -13 67 -35 83 -50 16 -15 37 -35 47 -43 9 -9 17
-26 16 -37 0 -12 -3 -15 -6 -8 -2 6 -11 12 -19 12 -8 0 -14 9 -14 20 0 11 -6
20 -14 20 -8 0 -16 7 -20 15 -3 8 -12 15 -21 15 -8 0 -15 5 -15 10 0 6 -12 10
-27 10 -22 0 -25 2 -13 10 12 8 11 10 -7 10 -12 0 -23 5 -25 12 -2 6 -24 14
-49 18 l-44 7 37 2 c21 0 61 -10 91 -23z m406 -19 c5 -18 23 -70 40 -117 17
-47 30 -92 30 -100 0 -8 -15 -32 -33 -53 l-33 -37 -18 87 c-15 76 -34 148 -60
218 -6 16 -5 17 4 5 21 -28 69 -190 70 -237 1 -13 5 -23 10 -23 6 0 8 10 5 23
-2 12 -8 45 -13 73 -8 44 -20 82 -55 179 -5 13 -2 11 8 -5 9 -14 30 -70 47
-125 18 -55 34 -94 37 -86 5 14 2 25 -41 163 -13 43 -20 75 -16 72 5 -2 13
-19 18 -37z m-669 -3 c0 -8 -5 -14 -11 -14 -5 0 -7 5 -4 10 3 6 -4 10 -17 11
-22 0 -22 1 -3 8 24 10 35 5 35 -15z m-1005 0 c18 -8 40 -17 49 -18 8 -1 23
-9 33 -18 10 -9 35 -19 56 -23 50 -10 84 -38 93 -78 3 -17 13 -41 20 -52 8
-11 14 -27 14 -37 0 -29 -41 -67 -79 -74 -20 -4 -56 -16 -81 -27 -25 -11 -48
-20 -51 -19 -3 1 -37 -10 -75 -24 -38 -14 -80 -25 -94 -25 -14 1 -38 2 -55 2
-26 1 -27 2 -10 9 11 5 35 6 53 3 19 -3 45 1 65 11 19 8 59 22 89 30 31 8 69
21 84 29 16 8 45 17 65 21 41 7 69 31 47 39 -10 4 -10 8 2 16 13 10 13 13 -4
22 -15 9 -16 13 -5 20 11 7 11 9 1 9 -7 0 -11 4 -7 9 3 5 -2 17 -11 25 -12 12
-12 16 -2 17 10 0 10 2 -1 6 -11 5 -11 7 0 14 10 6 8 9 -9 9 -13 0 -20 4 -17
10 3 6 -3 10 -14 10 -11 0 -23 5 -26 10 -3 6 -16 10 -27 10 -12 0 -29 6 -37
13 -25 20 -113 46 -146 42 -146 -15 -199 -30 -173 -47 9 -5 7 -8 -7 -9 l-20 0
20 -9 c16 -7 14 -9 -15 -9 -26 -1 -31 -4 -20 -11 12 -8 10 -10 -10 -11 -23 0
-23 -1 -5 -9 19 -8 19 -9 -2 -9 -13 -1 -23 -5 -23 -10 0 -5 -18 -9 -41 -9 -33
-1 -38 2 -29 13 6 8 17 12 25 9 7 -3 21 7 32 21 49 72 86 93 163 94 8 0 30 4
48 8 60 14 103 13 137 -3z m1507 -104 c-3 -31 -11 -44 -38 -62 -19 -13 -34
-29 -34 -35 0 -7 -6 -13 -12 -14 -7 -1 -22 -2 -33 -3 -11 0 -24 -11 -30 -23
-7 -16 -18 -23 -37 -23 -15 0 -30 -4 -33 -10 -8 -13 -25 -13 -25 0 0 5 18 15
40 21 21 7 37 16 34 20 -5 9 47 39 67 39 6 0 27 16 46 35 19 19 29 35 22 35
-9 0 -10 3 -4 8 14 9 13 32 -4 61 l-13 23 29 -17 c25 -14 28 -21 25 -55z
m-2132 -8 c8 0 24 -2 35 -3 11 -1 38 1 60 5 45 7 57 1 75 -34 l12 -25 -25 27
c-22 22 -31 25 -59 19 -18 -4 -42 -7 -53 -5 -10 1 -27 -2 -37 -7 -12 -6 -24
-7 -31 -1 -7 5 -21 4 -37 -4 -15 -8 -19 -14 -9 -14 8 0 21 6 29 13 12 10 12 9
1 -5 -7 -10 -21 -18 -30 -19 -9 -1 -5 -4 9 -9 23 -7 22 -8 -10 -9 -26 -1 -31
-4 -20 -11 11 -7 6 -10 -20 -11 -28 0 -31 -2 -15 -9 18 -7 17 -8 -10 -15 -16
-4 -37 -13 -45 -20 -8 -7 -22 -15 -30 -18 -14 -5 33 -12 55 -7 19 3 -9 -18
-30 -23 -13 -3 -8 -6 15 -7 l35 -3 -35 -7 c-24 -5 -28 -8 -12 -9 13 0 20 -5
17 -11 -3 -6 4 -10 17 -11 22 0 22 -1 3 -9 -11 -5 -15 -9 -10 -10 6 -1 1 -5
-10 -10 -17 -7 -16 -9 10 -10 l30 -1 -25 -11 c-15 -6 -20 -12 -12 -15 6 -3 10
-9 6 -14 -3 -5 5 -5 19 0 14 5 53 7 88 4 69 -6 112 -6 227 -1 41 2 75 0 78 -3
2 -4 -28 -9 -68 -12 -40 -2 -97 -6 -125 -9 -29 -2 -53 0 -53 5 0 5 -17 7 -38
4 -21 -2 -46 0 -55 5 -10 5 -24 5 -34 0 -10 -5 -31 -12 -47 -16 -27 -7 -28 -6
-24 24 3 17 1 33 -4 36 -4 3 -8 16 -8 29 0 17 -6 25 -22 27 -18 2 -24 10 -26
40 -3 29 3 42 27 67 17 17 39 31 50 31 11 0 31 14 43 31 25 34 87 69 103 59 6
-4 17 -8 25 -8z m965 -22 c4 -6 11 -7 17 -4 7 4 8 2 4 -4 -4 -7 -2 -12 5 -12
7 0 10 -3 6 -6 -3 -4 4 -15 16 -25 22 -19 22 -19 -15 -2 -21 9 -38 23 -38 30
0 7 -7 13 -15 13 -8 0 -15 5 -15 10 0 13 27 13 35 0z m-1442 -35 c-3 -9 -8
-14 -10 -11 -3 3 -2 9 2 15 9 16 15 13 8 -4z m1585 -22 c-10 -2 -26 -2 -35 0
-10 3 -2 5 17 5 19 0 27 -2 18 -5z m49 -9 c-3 -3 -12 -4 -19 -1 -8 3 -5 6 6 6
11 1 17 -2 13 -5z m136 -14 c4 0 7 -5 7 -10 0 -7 -6 -7 -19 0 -11 5 -33 10
-50 10 -17 0 -31 4 -31 9 0 4 19 5 43 0 23 -4 45 -8 50 -9z m528 -31 c-24 -20
-41 -24 -41 -11 0 9 53 40 60 35 3 -3 -6 -13 -19 -24z m-451 1 c13 -8 13 -10
-2 -10 -9 0 -20 5 -23 10 -8 13 5 13 25 0z m97 4 c-3 -3 -12 -4 -19 -1 -8 3
-5 6 6 6 11 1 17 -2 13 -5z m188 -10 c28 -9 65 -16 83 -15 17 0 32 -5 32 -11
0 -14 -93 -2 -130 17 -16 8 -49 12 -86 10 -54 -2 -55 -2 -14 5 25 4 50 8 55 8
6 1 33 -5 60 -14z m-575 -25 c0 -6 -7 -17 -15 -25 -13 -14 -15 -14 -15 0 0 8
5 18 10 21 6 4 7 11 4 17 -4 7 -2 8 4 4 7 -4 12 -12 12 -17z m1320 -81 c15
-102 22 -308 10 -308 -4 0 -33 -38 -64 -83 -30 -46 -62 -90 -71 -97 -9 -7 1
11 21 41 46 69 86 148 82 161 -2 6 -27 -25 -56 -69 -28 -44 -80 -109 -114
-145 -35 -36 -54 -53 -43 -39 11 14 24 31 30 36 24 23 176 267 170 273 -4 4
-10 0 -15 -8 -16 -29 -160 -222 -160 -215 0 4 13 25 28 48 84 123 162 258 162
279 0 7 -14 -11 -30 -41 -94 -170 -279 -385 -372 -432 -48 -24 -46 -21 32 41
51 40 124 112 160 156 62 77 82 106 77 110 -2 3 -14 -6 -25 -20 -11 -15 -23
-26 -27 -26 -3 0 11 21 33 48 47 56 112 164 112 183 -1 8 -8 1 -17 -16 -42
-77 -167 -220 -248 -282 -39 -30 -190 -116 -170 -97 6 5 42 31 82 58 39 27 94
70 122 97 54 52 161 191 188 243 19 39 19 38 -56 -56 -34 -43 -64 -78 -68 -78
-3 0 1 8 9 18 9 9 21 28 27 42 7 15 -3 6 -26 -20 -85 -101 -172 -185 -238
-230 -74 -50 -203 -123 -171 -96 30 24 16 20 -78 -25 -70 -34 -99 -42 -158
-46 -40 -2 -70 -1 -67 2 3 3 40 14 83 25 76 19 250 85 273 102 7 5 23 11 37
12 28 3 204 160 286 255 30 35 60 69 65 75 6 6 40 49 75 96 52 69 86 107 96
110 1 0 7 -37 14 -82z m-1482 58 c-7 -8 -15 -12 -17 -11 -5 6 10 25 20 25 5 0
4 -6 -3 -14z m252 11 c0 -2 -10 -12 -21 -23 -22 -19 -22 -19 -10 4 10 18 31
31 31 19z m40 -17 c0 -5 -8 -10 -17 -10 -15 0 -16 2 -3 10 19 12 20 12 20 0z
m937 -12 c-3 -8 -6 -5 -6 6 -1 11 2 17 5 13 3 -3 4 -12 1 -19z m-1111 -13 c1
-8 -2 -13 -7 -9 -5 3 -9 0 -9 -7 0 -7 -2 -10 -5 -8 -2 3 -2 15 2 27 6 24 15
22 19 -3z m-136 -10 c0 -25 -18 -25 -22 -1 -4 17 -1 23 9 19 7 -3 13 -11 13
-18z m564 14 c-17 -5 -37 -16 -44 -24 -7 -8 -21 -15 -31 -15 -11 0 -19 -4 -19
-10 0 -5 -7 -7 -15 -4 -22 9 4 32 30 27 16 -4 17 -3 5 6 -12 9 -11 11 8 11 12
0 22 4 22 8 0 4 17 9 38 9 l37 2 -31 -10z m-477 -45 c-9 -17 -17 -23 -21 -15
-4 6 -3 11 3 11 5 0 13 9 16 21 4 11 9 18 12 16 2 -3 -2 -18 -10 -33z m-207 6
c0 -5 -2 -10 -4 -10 -3 0 -8 5 -11 10 -3 6 -1 10 4 10 6 0 11 -4 11 -10z m138
-25 c-3 -3 -9 2 -12 12 -6 14 -5 15 5 6 7 -7 10 -15 7 -18z m-66 -29 c4 -21 3
-23 -13 -13 -10 6 -15 15 -12 19 2 5 -1 16 -9 25 -12 15 -11 15 8 5 12 -6 24
-22 26 -36z m188 11 c0 -5 -4 -5 -10 -2 -5 3 -10 14 -10 23 0 15 2 15 10 2 5
-8 10 -19 10 -23z m-103 1 c-3 -8 -6 -5 -6 6 -1 11 2 17 5 13 3 -3 4 -12 1
-19z m187 15 c-5 -5 -12 -12 -16 -18 -4 -6 -8 -2 -8 8 0 9 7 17 17 17 9 0 12
-3 7 -7z m226 2 c0 -2 -13 -7 -28 -13 -21 -7 -29 -7 -29 2 0 6 13 12 29 13 15
0 28 -1 28 -2z m-543 -53 c0 -11 -4 -10 -14 4 -7 10 -13 22 -13 26 0 5 6 3 13
-4 8 -7 14 -19 14 -26z m450 22 c-3 -3 -12 -4 -19 -1 -8 3 -5 6 6 6 11 1 17
-2 13 -5z m-639 -27 c7 -5 30 -11 51 -13 38 -2 97 -31 87 -42 -3 -3 -12 0 -19
7 -8 6 -25 11 -38 10 -32 -1 -48 4 -86 24 -36 19 -54 40 -26 30 10 -3 24 -11
31 -16z m371 -22 c16 -20 16 -20 -6 -1 -13 11 -23 26 -22 35 0 14 1 14 6 1 3
-8 13 -24 22 -35z m-46 -10 c-3 -9 -8 -14 -10 -11 -3 3 -2 9 2 15 9 16 15 13
8 -4z m152 -49 c0 -15 -4 -21 -9 -16 -5 5 -6 16 -3 24 9 22 12 20 12 -8z
m-155 4 c0 -5 -5 -10 -11 -10 -5 0 -7 5 -4 10 3 6 8 10 11 10 2 0 4 -4 4 -10z
m51 -61 c-9 -23 -10 -23 -10 -2 -1 12 2 30 6 40 6 15 8 15 11 2 1 -8 -2 -26
-7 -40z m30 8 c-10 -9 -11 -8 -5 6 3 10 9 15 12 12 3 -3 0 -11 -7 -18z m62
-34 c4 -18 3 -34 -1 -37 -4 -2 -8 7 -8 20 -1 13 -5 37 -8 52 -4 18 -3 22 2 12
5 -8 12 -29 15 -47z m-178 37 c3 -5 1 -10 -4 -10 -6 0 -11 5 -11 10 0 6 2 10
4 10 3 0 8 -4 11 -10z m-8 -42 c-3 -8 -6 -5 -6 6 -1 11 2 17 5 13 3 -3 4 -12
1 -19z m-1367 -21 c19 -6 37 -11 40 -12 27 -4 187 -76 229 -102 29 -19 56 -32
59 -29 5 6 76 -30 157 -79 88 -55 142 -71 243 -74 62 -2 122 -11 174 -26 61
-18 98 -23 152 -20 187 11 323 12 346 4 17 -5 4 -6 -37 -3 -76 7 -127 -2 -119
-22 3 -8 0 -14 -7 -14 -7 0 -43 -3 -82 -5 l-70 -5 55 15 c30 9 59 20 65 26 7
7 5 9 -5 5 -24 -8 -141 -19 -192 -19 -25 0 -77 11 -115 24 -45 15 -97 23 -153
25 -176 5 -223 18 -307 81 -18 13 -33 19 -33 14 0 -6 5 -11 10 -11 6 0 10 -4
10 -10 0 -5 -27 10 -60 34 -71 52 -223 127 -265 130 -24 2 -161 50 -173 61 -1
1 0 10 4 19 4 11 12 15 23 10 9 -3 32 -11 51 -17z m1521 -32 c5 3 6 -1 2 -10
-5 -13 -7 -14 -14 -3 -5 7 -8 22 -7 33 1 17 1 17 5 -3 2 -12 9 -20 14 -17z
m-151 0 c0 -14 -4 -25 -9 -25 -4 0 -6 11 -3 25 2 14 6 25 8 25 2 0 4 -11 4
-25z m217 -7 c-3 -7 -5 -2 -5 12 0 14 2 19 5 13 2 -7 2 -19 0 -25z m-190 0
c-3 -8 -6 -5 -6 6 -1 11 2 17 5 13 3 -3 4 -12 1 -19z m97 -14 c3 -8 2 -12 -4
-9 -6 3 -10 10 -10 16 0 14 7 11 14 -7z m-97 -26 c-3 -8 -6 -5 -6 6 -1 11 2
17 5 13 3 -3 4 -12 1 -19z m1459 -43 c-15 -24 -32 -47 -38 -51 -7 -4 -3 6 8
22 12 16 27 44 35 62 8 17 15 28 17 22 2 -6 -8 -30 -22 -55z m-483 35 c9 -9 5
-11 -20 -5 -110 23 -270 -4 -358 -60 -42 -27 -22 -27 40 0 35 16 107 36 112
31 9 -9 -182 -75 -233 -80 -54 -5 -56 -4 -24 6 l35 11 -50 10 c-27 6 -92 11
-143 11 -60 0 -89 3 -83 9 10 10 122 12 196 3 51 -5 96 4 220 47 92 32 108 35
198 32 61 -2 103 -7 110 -15z m287 16 c0 -2 -8 -10 -17 -17 -16 -13 -17 -12
-4 4 13 16 21 21 21 13z m-2647 -53 c29 -15 137 -45 137 -38 0 2 -15 13 -32
24 l-33 22 30 -7 c46 -9 146 -59 180 -89 17 -14 21 -21 10 -16 -11 6 -47 18
-80 27 -168 45 -194 54 -226 73 -41 25 -31 28 14 4z m2576 -19 c-52 -55 -148
-124 -207 -150 -72 -33 -78 -30 -14 6 62 34 204 134 228 161 10 11 20 19 23
19 2 0 -11 -16 -30 -36z m-1239 -8 c36 -4 81 -11 100 -16 28 -7 22 -8 -25 -4
-186 18 -212 9 -52 -16 42 -7 77 -16 77 -21 0 -4 -15 -3 -32 2 -66 20 -247 19
-333 -2 -44 -11 -86 -18 -95 -17 -26 6 118 48 163 48 26 0 37 3 29 9 -14 8
-108 -3 -156 -19 -16 -6 -31 -8 -33 -6 -8 8 98 38 150 43 29 3 53 6 55 7 3 4
75 0 152 -8z m-1299 -36 c24 -7 51 -13 59 -15 8 -2 27 -8 42 -14 15 -6 49 -13
75 -17 27 -3 86 -24 133 -46 47 -22 109 -47 137 -56 29 -9 53 -20 53 -24 0
-10 -77 0 -135 18 -81 25 -81 25 -59 7 11 -10 31 -26 45 -36 13 -10 2 -6 -26
9 -118 64 -145 75 -245 94 -98 20 -155 38 -80 27 32 -5 33 -5 16 8 -11 8 -40
22 -65 31 -56 21 -72 33 -34 27 27 -5 28 -5 8 12 -19 16 -19 17 6 2 14 -9 46
-21 70 -27z m808 36 c-3 -3 -38 -6 -79 -7 -88 -2 -141 -17 -70 -19 54 -2 44
-7 -27 -13 -29 -2 -50 0 -47 5 3 4 -14 6 -37 3 -56 -7 -43 4 23 21 49 11 247
20 237 10z m1318 -12 c-3 -3 -12 -4 -19 -1 -8 3 -5 6 6 6 11 1 17 -2 13 -5z
m-1374 -21 c-7 -2 -21 -2 -30 0 -10 3 -4 5 12 5 17 0 24 -2 18 -5z m1036 -13
c18 -10 -88 0 -114 11 -12 5 4 6 40 3 33 -4 66 -10 74 -14z m331 1 c-8 -5 -26
-11 -40 -15 -21 -5 -20 -3 5 9 32 15 60 20 35 6z m-773 -25 c4 -3 -9 -6 -28
-6 -27 0 -31 -3 -19 -11 12 -9 12 -10 -3 -5 -10 3 -40 7 -65 7 -43 1 -45 2
-17 10 20 5 -2 7 -65 5 -54 -2 -84 0 -70 4 28 9 258 5 267 -4z m167 -6 c4 -5
-9 -5 -30 0 -71 15 -79 19 -29 14 28 -3 54 -9 59 -14z m441 5 c-16 -8 -48 -14
-70 -13 -37 0 -36 1 13 8 29 4 56 11 59 14 4 3 11 6 17 5 6 0 -2 -7 -19 -14z
m-1282 -2 c-7 -2 -21 -2 -30 0 -10 3 -4 5 12 5 17 0 24 -2 18 -5z m-56 -9 c-3
-3 -12 -4 -19 -1 -8 3 -5 6 6 6 11 1 17 -2 13 -5z m298 -4 c-3 -5 -12 -10 -18
-10 -7 0 -6 4 3 10 19 12 23 12 15 0z m478 3 c-7 -2 -19 -2 -25 0 -7 3 -2 5
12 5 14 0 19 -2 13 -5z m1408 -40 c-9 -33 -22 -46 -88 -90 -72 -47 -129 -70
-160 -64 -21 3 -14 -9 10 -19 16 -6 0 -9 -57 -9 -89 -1 -206 -19 -206 -31 0
-5 -26 -14 -57 -20 -32 -6 -69 -14 -83 -17 l-25 -6 23 19 23 19 -53 -3 c-39
-2 -49 0 -38 7 12 8 6 11 -25 12 -22 0 -47 2 -55 3 -8 2 -69 9 -135 16 l-121
13 -54 -26 c-30 -15 -44 -25 -30 -21 14 3 50 8 80 11 l55 5 -40 -26 c-47 -30
-44 -31 40 -10 50 13 77 14 127 6 l63 -10 -63 1 c-35 0 -68 -5 -74 -11 -8 -8
4 -11 43 -11 30 0 65 -4 79 -9 22 -9 20 -10 -17 -9 -45 1 -59 -5 -49 -22 4 -6
46 -9 109 -7 60 2 92 0 79 -5 -12 -5 -22 -11 -22 -14 0 -7 72 5 94 17 14 7 17
7 11 -2 -4 -7 -32 -23 -61 -36 -56 -24 -76 -42 -26 -23 15 6 38 13 52 15 14 3
49 16 79 30 29 13 56 24 58 24 9 0 -97 -71 -120 -80 -21 -8 -21 -9 -2 -9 11
-1 35 3 54 9 33 9 33 9 16 -10 -24 -26 -16 -25 41 5 26 14 56 25 68 24 14 0 9
-4 -13 -11 -26 -7 -31 -12 -20 -19 12 -7 11 -9 -3 -9 -9 0 -20 -5 -24 -12 -4
-6 -3 -8 3 -5 5 3 48 8 95 11 46 3 93 8 104 11 15 5 16 4 4 -3 -8 -6 -35 -13
-60 -16 -101 -14 -120 -18 -126 -28 -4 -7 -2 -8 4 -4 6 4 49 8 94 10 87 3 129
18 226 79 29 19 42 23 42 13 0 -24 -157 -94 -239 -106 -41 -6 -81 -15 -90 -21
-13 -8 -13 -9 4 -5 11 3 59 7 107 10 48 2 92 7 99 12 7 4 10 3 6 -3 -3 -5 -32
-15 -64 -22 -92 -21 -91 -28 4 -23 l87 5 -29 -39 c-64 -87 -69 -91 -96 -83
-14 3 -63 32 -108 63 -45 31 -86 54 -91 51 -5 -3 -5 -18 -1 -33 10 -34 4 -53
-14 -46 -10 4 -11 12 -6 27 4 12 7 36 7 52 -1 24 -5 29 -20 27 -14 -3 -17 1
-13 12 5 14 3 15 -13 6 -19 -10 -24 -6 -21 13 1 4 -16 -4 -36 -18 -31 -21 -39
-23 -41 -10 -3 11 -8 12 -21 6 -13 -7 -18 -6 -18 4 0 8 4 12 9 9 4 -3 5 1 2 9
-4 12 -11 12 -44 -4 -47 -23 -56 -24 -40 -4 9 11 9 15 1 15 -7 0 -9 5 -5 11 5
9 -1 10 -20 5 -18 -4 -25 -3 -21 4 3 5 1 10 -5 10 -6 0 -8 5 -4 12 4 7 3 8 -5
4 -7 -4 -20 -4 -29 0 -20 9 -28 11 -43 13 -5 0 -7 6 -3 13 5 8 0 9 -14 6 -15
-4 -22 -2 -22 8 0 10 -6 11 -26 4 -28 -11 -48 -4 -41 14 3 7 -10 10 -42 9 -34
-2 -41 -1 -26 6 18 8 17 10 -12 16 -18 4 -30 11 -27 16 3 5 -2 9 -10 9 -9 0
-16 5 -16 11 0 7 -9 9 -21 6 -17 -5 -18 -3 -8 9 7 8 8 14 3 13 -5 -1 -18 0
-29 1 -15 1 -16 3 -5 7 10 4 4 10 -20 19 -29 10 -31 13 -11 13 20 1 21 3 11
16 -10 12 -10 15 1 15 8 1 32 3 54 6 38 5 39 5 20 -10 l-20 -16 20 6 c11 4 39
15 63 26 36 16 65 19 182 17 87 0 140 -5 140 -11 0 -6 -15 -8 -35 -6 -20 2
-31 0 -26 -5 12 -12 83 -11 150 2 29 6 86 11 125 10 58 0 67 -2 49 -11 -13 -6
-23 -15 -23 -20 0 -5 4 -7 9 -3 11 6 164 52 284 84 93 25 178 67 232 115 22
19 41 33 43 31 2 -1 -1 -20 -7 -42z m-2847 7 c19 -12 65 -30 102 -40 67 -19
214 -84 214 -94 0 -6 -29 3 -45 14 -19 13 -120 49 -178 64 -68 17 -65 1 5 -29
51 -22 160 -87 155 -92 -2 -1 -30 6 -62 17 -32 11 -60 18 -62 16 -4 -4 23 -26
63 -54 11 -6 -8 1 -41 17 -33 16 -80 34 -105 42 -42 11 -70 32 -70 50 0 5 16
1 35 -7 54 -22 74 -18 39 9 -47 35 -94 83 -94 96 0 15 3 14 44 -9z m1344 3
c-21 -2 -57 -2 -80 0 -24 2 -7 4 37 4 44 0 63 -2 43 -4z m57 -3 c3 -5 1 -10
-4 -10 -6 0 -11 5 -11 10 0 6 2 10 4 10 3 0 8 -4 11 -10z m259 -67 c-22 -22
-44 -26 -37 -6 5 12 7 12 14 1 6 -9 9 -6 9 10 0 13 4 20 10 17 6 -3 11 2 11
12 1 17 2 17 6 1 2 -10 -3 -26 -13 -35z m-544 23 c0 -2 -9 -6 -20 -9 -11 -3
-18 -1 -14 4 5 9 34 13 34 5z m-220 -64 c20 -8 10 -10 -48 -7 -39 1 -75 -1
-78 -6 -3 -5 -24 -8 -47 -8 -36 2 -37 3 -12 7 l30 5 -25 7 c-18 6 -6 8 39 9
63 1 80 9 28 13 -14 1 -24 5 -21 9 4 8 92 -11 134 -29z m1215 28 c3 -5 0 -10
-7 -10 -7 0 -31 -2 -53 -5 l-40 -5 40 14 c50 18 52 18 60 6z m42 4 c-3 -3 -12
-4 -19 -1 -8 3 -5 6 6 6 11 1 17 -2 13 -5z m-594 -27 c4 3 7 1 7 -6 0 -8 -7
-10 -20 -6 -12 4 -20 2 -20 -6 0 -8 -3 -9 -13 0 -8 6 -17 8 -20 4 -4 -3 -7 -1
-7 6 0 8 7 10 20 6 12 -4 20 -2 20 6 0 8 3 9 13 0 8 -6 17 -8 20 -4z m-176
-29 c-3 -8 -6 -5 -6 6 -1 11 2 17 5 13 3 -3 4 -12 1 -19z m53 7 c-7 -8 -20
-14 -29 -14 -13 1 -13 2 2 6 9 2 17 9 17 14 0 5 5 9 11 9 8 0 8 -5 -1 -15z
m36 -12 c-10 -10 -19 5 -10 18 6 11 8 11 12 0 2 -7 1 -15 -2 -18z m-866 -3 c0
-9 -48 -1 -55 9 -2 4 9 5 26 3 16 -2 29 -8 29 -12z m757 -2 c-3 -8 -6 -5 -6 6
-1 11 2 17 5 13 3 -3 4 -12 1 -19z m-17 -1 c0 -5 -7 -7 -15 -3 -8 3 -15 1 -15
-4 0 -5 -7 -7 -15 -4 -24 10 -17 19 15 19 17 1 30 -3 30 -8z m-1232 -62 c65
-27 60 -32 -10 -10 -27 8 -48 12 -48 10 0 -3 23 -16 50 -30 28 -14 50 -27 50
-29 0 -2 -26 2 -57 10 -32 7 -61 13 -65 14 -5 0 -38 84 -38 97 0 3 14 -5 30
-17 17 -12 56 -32 88 -45z m1092 53 c0 -15 -18 -17 -30 -3 -9 11 -8 14 9 12
12 -1 21 -5 21 -9z m60 2 c0 -5 -4 -10 -10 -10 -5 0 -10 5 -10 10 0 6 5 10 10
10 6 0 10 -4 10 -10z m-420 -11 c0 -5 6 -7 13 -3 7 4 7 2 -2 -7 -11 -11 -14
-11 -18 -1 -4 10 -8 10 -19 1 -12 -10 -13 -9 -8 5 7 18 34 22 34 5z m234 -1
c3 -5 3 -6 0 -4 -3 3 -17 1 -30 -4 -18 -7 -24 -6 -24 3 0 14 44 17 54 5z m84
-6 c2 -7 -2 -10 -12 -6 -9 3 -16 11 -16 16 0 13 23 5 28 -10z m-521 -24 c-3
-7 -5 -2 -5 12 0 14 2 19 5 13 2 -7 2 -19 0 -25z m98 23 c3 -5 1 -12 -5 -16
-5 -3 -10 1 -10 9 0 18 6 21 15 7z m40 -1 c-3 -5 -11 -10 -16 -10 -6 0 -7 5
-4 10 3 6 11 10 16 10 6 0 7 -4 4 -10z m115 -11 c0 -5 -4 -9 -10 -9 -5 0 -10
7 -10 16 0 8 5 12 10 9 6 -3 10 -10 10 -16z m47 6 c0 -7 -7 -12 -16 -10 -22 3
-24 20 -3 22 10 1 19 -4 19 -12z m73 4 c0 -4 -4 -11 -10 -14 -5 -3 -10 -1 -10
5 0 8 -6 8 -20 0 -15 -8 -20 -8 -20 3 0 8 11 13 30 13 17 0 30 -3 30 -7z m110
-1 c0 -4 -7 -8 -15 -8 -8 0 -15 4 -15 8 0 5 7 9 15 9 8 0 15 -4 15 -9z m-556
-6 c3 -5 -1 -9 -9 -9 -8 0 -12 4 -9 9 3 4 7 8 9 8 2 0 6 -4 9 -8z m106 -8 c0
-8 -5 -12 -10 -9 -6 4 -8 11 -5 16 9 14 15 11 15 -7z m37 2 c-5 -16 -27 -19
-27 -3 0 7 7 14 15 14 9 0 14 -5 12 -11z m2077 -8 c-15 -49 -44 -108 -51 -106
-15 3 -98 -14 -132 -28 -50 -21 -49 -10 1 15 37 18 40 21 18 22 -80 2 -167 -4
-185 -13 -18 -10 -18 -9 -7 5 18 21 63 35 137 42 189 18 232 31 89 28 -60 -2
-94 1 -94 8 0 6 4 8 8 5 10 -6 149 19 182 32 37 16 42 14 34 -10z m-1489 2 c9
-15 -24 -25 -38 -11 -15 15 -30 14 -21 -1 5 -10 4 -10 -6 -1 -9 8 -19 9 -32 2
-11 -6 -18 -6 -18 0 0 19 104 29 115 11z m1362 4 c-3 -3 -12 -4 -19 -1 -8 3
-5 6 6 6 11 1 17 -2 13 -5z m-2173 -36 c-4 -6 -9 -5 -14 2 -5 8 -13 9 -21 4
-12 -6 -12 -5 0 9 10 13 17 15 27 6 8 -6 11 -16 8 -21z m344 15 c-16 -2 -40
-2 -55 0 -16 2 -3 4 27 4 30 0 43 -2 28 -4z m276 -1 c2 -4 -14 -7 -37 -7 -23
0 -53 -3 -67 -7 -19 -6 -18 -4 5 7 32 15 91 20 99 7z m-217 -8 c-3 -3 -12 -4
-19 -1 -8 3 -5 6 6 6 11 1 17 -2 13 -5z m-517 -16 c0 -9 4 -8 11 2 7 10 9 11
7 2 -2 -8 -6 -12 -9 -10 -3 2 -13 -3 -22 -10 -12 -10 -17 -10 -23 -1 -4 8 -3
9 4 5 7 -4 12 -1 12 8 0 9 5 16 10 16 6 0 10 -6 10 -12z m208 2 c-21 -4 -47
-15 -58 -25 -11 -10 -20 -15 -20 -10 0 4 -8 1 -17 -6 -17 -13 -17 -12 -4 4 19
24 69 45 106 45 27 0 26 -1 -7 -8z m248 2 c-2 -4 -19 -8 -38 -9 -30 -1 -31 -1
-8 7 33 11 52 12 46 2z m257 1 c3 -5 -10 -8 -29 -9 -21 0 -30 3 -22 8 16 10
45 10 51 1z m1464 1 c-3 -3 -12 -4 -19 -1 -8 3 -5 6 6 6 11 1 17 -2 13 -5z
m-2230 -26 c-3 -8 -6 -5 -6 6 -1 11 2 17 5 13 3 -3 4 -12 1 -19z m1008 14 c-9
-10 -86 -19 -91 -11 -2 4 -12 6 -22 3 -14 -5 -15 -4 -2 5 14 10 125 13 115 3z
m-350 -22 c14 -7 10 -8 -16 -4 -24 4 -47 0 -68 -10 -38 -20 -42 -12 -3 8 31
17 58 19 87 6z m380 0 c-3 -5 -14 -10 -23 -9 -14 0 -13 2 3 9 27 11 27 11 20
0z m-573 -13 c-18 -7 -37 -19 -42 -27 -5 -8 -10 -10 -11 -5 0 6 -4 1 -9 -10
-8 -19 -9 -19 -9 2 -1 28 35 53 74 52 l30 -1 -33 -11z m701 3 c-33 -13 -28
-20 10 -15 23 4 18 1 -15 -10 -26 -8 -50 -20 -53 -25 -3 -6 -12 -10 -18 -10
-7 0 -1 9 13 20 29 23 17 26 -23 5 -15 -8 -25 -9 -21 -4 9 15 85 49 109 48 18
0 18 -1 -2 -9z m-1119 -25 c-15 -13 -31 -22 -34 -19 -6 7 38 44 53 44 5 0 -3
-11 -19 -25z m296 15 c-14 -4 -43 -9 -65 -9 -40 -1 -78 -23 -88 -51 -3 -9 -6
-4 -6 11 -1 41 32 58 114 57 50 0 63 -2 45 -8z m285 0 c3 -6 -1 -7 -9 -4 -18
7 -21 14 -7 14 6 0 13 -4 16 -10z m194 -3 c-29 -21 -60 -36 -54 -26 6 9 3 11
-8 6 -10 -3 -17 -2 -17 2 0 5 6 12 13 14 13 6 73 9 66 4z m69 -14 c-21 -8 -38
-19 -38 -24 0 -4 -6 -6 -13 -3 -8 3 -18 -5 -25 -18 -6 -13 -11 -18 -11 -12 -1
19 38 62 62 67 49 10 60 5 25 -10z m100 -7 c-10 -7 -18 -18 -18 -24 0 -18 -17
-23 -24 -7 -3 9 5 20 22 29 34 19 43 20 20 2z m244 2 c-17 -17 -15 -33 3 -18
9 7 15 8 15 2 0 -12 -60 -65 -67 -58 -3 2 3 16 12 30 18 27 9 36 -13 14 -7 -7
-27 -13 -44 -14 -25 -1 -28 0 -15 8 10 5 22 6 27 3 6 -4 25 5 43 19 32 26 61
36 39 14z m643 2 c-3 -5 -12 -10 -18 -10 -7 0 -6 4 3 10 19 12 23 12 15 0z
m-1390 -27 c0 -26 2 -27 45 -25 37 3 47 -1 58 -18 12 -20 12 -21 -11 -5 -15
10 -36 14 -53 11 -39 -7 -64 2 -64 23 0 13 17 41 25 41 0 0 1 -12 0 -27z m194
8 c-13 -11 -26 -17 -29 -14 -6 6 30 33 43 33 5 0 -1 -9 -14 -19z m-829 -10
c25 -6 83 -26 129 -45 78 -32 109 -37 97 -17 -3 4 29 2 72 -5 42 -8 95 -16
118 -19 23 -3 61 -14 85 -25 49 -22 86 -28 59 -9 -12 8 -11 9 5 5 11 -3 43
-10 70 -17 64 -15 107 -40 173 -102 30 -28 57 -46 60 -41 4 5 34 -5 67 -24
l60 -33 -55 5 -55 6 24 -20 c31 -26 9 -27 -65 -1 -47 17 -56 18 -61 5 -3 -8
-11 -14 -18 -14 -8 0 -15 -6 -17 -13 -2 -11 -18 -9 -73 8 -69 22 -89 19 -65
-10 15 -18 10 -18 -24 -5 -29 11 -44 -3 -26 -25 10 -12 7 -13 -22 -5 -44 13
-48 13 -48 -5 0 -19 -11 -19 -54 1 -19 9 -42 14 -51 10 -17 -6 -17 -8 1 -27
19 -21 19 -21 -18 -14 -46 9 -69 -2 -43 -22 23 -16 8 -17 -50 -2 -24 6 -54 22
-66 35 l-23 25 44 -16 c24 -8 45 -13 47 -11 9 8 -42 35 -80 41 -20 4 -39 11
-42 15 -2 4 35 -1 83 -11 48 -9 88 -16 90 -14 6 5 -39 28 -73 36 -22 6 -16 7
23 4 28 -2 52 -2 52 0 0 3 -12 12 -27 20 l-28 16 35 -6 c19 -3 52 -14 72 -25
21 -11 38 -16 38 -11 0 14 -73 59 -118 72 -23 7 -41 14 -39 16 10 10 111 -22
151 -48 53 -33 101 -42 51 -9 -16 11 -23 20 -16 20 21 0 -45 66 -81 81 -16 6
-27 13 -25 16 9 9 57 -18 101 -56 26 -23 62 -48 79 -57 l32 -16 -30 26 c-26
22 -27 24 -7 19 30 -7 28 3 -5 22 -28 15 -28 15 17 10 25 -3 36 -1 25 3 -25 9
-85 41 -85 46 0 6 147 -32 169 -44 13 -6 25 -9 29 -6 3 3 1 6 -4 6 -5 0 -22
11 -38 25 -16 14 -36 25 -45 26 -30 1 -76 10 -81 16 -3 2 11 4 30 3 19 -2 43
1 53 5 19 8 104 -10 124 -27 8 -7 13 -7 13 -1 0 6 -28 23 -62 38 -53 24 -76
28 -141 28 -42 -1 -75 2 -72 7 6 10 -80 40 -114 40 -25 -1 -25 -1 7 -15 17 -8
32 -17 32 -20 0 -3 -6 -3 -12 2 -20 12 -147 20 -145 8 1 -5 -4 -9 -12 -7 -65
14 -185 32 -188 28 -11 -11 109 -38 202 -46 90 -7 155 -22 155 -34 0 -3 -12
-1 -28 5 -34 12 -314 17 -303 6 5 -5 55 -15 113 -22 98 -13 158 -28 158 -40 0
-2 -11 0 -25 5 -27 10 -192 16 -202 7 -3 -3 17 -13 43 -22 l49 -15 -43 4 c-36
4 -41 2 -31 -10 9 -11 8 -14 -2 -14 -8 0 -2 -11 14 -25 15 -14 24 -25 19 -25
-18 0 -73 64 -134 155 -59 88 -60 90 -37 96 l24 5 -23 8 c-44 15 -17 15 58 0
41 -8 82 -14 90 -13 21 0 -105 49 -164 63 -58 13 -77 39 -24 32 18 -3 53 -9
78 -15z m471 -5 c-14 -15 -20 -30 -16 -37 5 -8 4 -10 -3 -5 -17 11 -14 37 6
52 29 22 37 16 13 -10z m953 -11 c-9 -14 -26 -31 -38 -37 -14 -7 -10 1 13 26
41 42 48 45 25 11z m-403 -12 c-12 -20 -14 -14 -5 12 4 9 9 14 11 11 3 -2 0
-13 -6 -23z m-504 2 c0 -8 -4 -12 -9 -9 -5 3 -6 10 -3 15 9 13 12 11 12 -6z
m410 -17 c-3 -8 -6 -5 -6 6 -1 11 2 17 5 13 3 -3 4 -12 1 -19z m555 10 c-17
-17 -15 -33 3 -18 17 14 19 7 5 -20 -6 -11 -6 -21 -1 -24 5 -3 14 8 20 24 5
17 12 30 15 30 3 0 1 -12 -4 -26 -13 -32 -12 -44 1 -22 5 9 16 15 24 12 8 -4
18 1 21 10 3 9 10 16 16 16 5 0 7 -4 3 -9 -3 -5 -1 -12 5 -16 14 -9 13 -18 -6
-41 -8 -10 -12 -13 -8 -5 11 21 -18 32 -43 15 -15 -10 -23 -11 -23 -3 0 8 -5
7 -17 -2 -14 -12 -17 -12 -21 0 -3 8 -7 10 -11 3 -4 -6 -12 -8 -19 -4 -14 9
23 92 41 92 7 0 7 -4 -1 -12z m-633 -42 c-3 -3 -11 5 -18 17 -13 21 -12 21 5
5 10 -10 16 -20 13 -22z m61 9 c14 -19 14 -19 -2 -6 -10 7 -18 18 -18 24 0 6
1 8 3 6 1 -2 9 -13 17 -24z m523 6 c-3 -11 -14 -28 -26 -38 -21 -18 -21 -18
-6 7 9 14 19 31 23 38 11 18 15 15 9 -7z m-789 -1 c14 -5 26 -14 26 -20 0 -6
-11 -3 -25 6 -14 9 -31 14 -40 11 -8 -4 -17 -2 -20 3 -8 13 27 13 59 0z m177
-7 c13 -16 12 -17 -3 -4 -10 7 -18 15 -18 17 0 8 8 3 21 -13z m180 -9 c13 -14
17 -23 9 -19 -13 5 -46 45 -37 45 2 0 14 -11 28 -26z m39 11 c0 -7 9 -22 20
-35 27 -31 25 -38 -2 -14 -46 39 -58 61 -33 61 8 0 15 -6 15 -12z m260 -22
c19 -20 19 -23 3 -9 -12 10 -39 24 -60 32 l-38 15 35 -6 c20 -3 46 -17 60 -32z
m-101 -56 l14 -22 -24 21 c-29 26 -76 43 -64 24 5 -9 4 -11 -4 -6 -6 4 -9 12
-6 17 4 5 -1 12 -9 15 -9 3 -16 10 -16 14 0 14 96 -41 109 -63z m-219 8 c0 -6
-80 31 -93 44 -6 6 12 0 41 -14 29 -14 52 -27 52 -30z m-9 38 c15 -9 31 -24
34 -32 4 -10 -3 -7 -18 7 -13 12 -28 22 -35 22 -6 0 -14 5 -17 10 -9 15 3 12
36 -7z m334 -23 c4 -6 10 -8 14 -6 3 3 7 -4 7 -14 0 -16 -3 -17 -16 -6 -8 7
-19 12 -25 10 -5 -2 -21 6 -35 17 l-25 20 33 -16 c18 -9 32 -11 32 -5 0 5 -4
10 -8 10 -5 0 -17 7 -28 15 -17 14 -16 14 13 1 17 -9 35 -20 38 -26z m351 18
c2 -2 -1 -10 -6 -18 -8 -12 -10 -12 -10 4 0 16 -2 16 -21 -5 -16 -19 -19 -20
-15 -6 3 10 6 23 6 27 0 8 38 6 46 -2z m32 -20 c-6 -15 -12 -28 -14 -28 -2 0
-3 13 -2 28 1 16 7 29 14 29 9 0 9 -8 2 -29z m-881 12 c16 -6 37 -25 47 -43
l17 -32 -19 23 c-22 24 -38 30 -26 10 4 -8 3 -10 -2 -5 -5 5 -9 14 -9 20 0 7
-16 17 -35 24 -19 7 -28 12 -19 12 9 1 29 -4 46 -9z m241 -35 c-3 -3 -9 2 -12
12 -6 14 -5 15 5 6 7 -7 10 -15 7 -18z m674 -5 l-9 -24 -5 22 c-4 12 -2 20 3
16 5 -3 9 0 9 7 0 7 2 10 5 7 3 -3 2 -16 -3 -28z m-801 3 c13 -16 12 -17 -3
-4 -17 13 -22 21 -14 21 2 0 10 -8 17 -17z m255 -4 c19 -22 19 -22 -3 -10 -24
12 -39 31 -25 31 5 0 17 -10 28 -21z m597 -6 c-7 -3 -13 -14 -13 -24 0 -11 -4
-17 -10 -14 -5 3 -10 10 -10 15 0 14 32 42 39 34 3 -4 0 -9 -6 -11z m13 -35
c-9 -12 -16 -17 -16 -10 0 18 24 54 28 42 2 -5 -4 -20 -12 -32z m-156 -3 c42
-21 68 -43 82 -69 10 -18 9 -18 -16 0 -14 11 -26 22 -26 26 0 15 -114 48 -168
49 -42 1 -51 3 -32 9 40 12 122 4 160 -15z m205 8 c6 15 10 16 16 5 7 -10 9
-10 9 0 0 6 4 12 9 12 5 0 5 -12 -1 -28 -11 -28 -30 -34 -56 -18 -7 4 -12 2
-13 -6 0 -9 -2 -10 -5 -1 -3 7 0 22 7 35 12 22 12 22 19 3 7 -19 8 -19 15 -2z
m57 -18 c-2 -14 -9 -25 -14 -25 -5 0 -7 3 -5 8 2 4 7 15 10 25 9 25 15 21 9
-8z m-810 -2 c5 -2 13 -13 19 -25 9 -16 8 -19 -2 -13 -9 6 -10 3 -5 -10 5 -14
4 -16 -7 -7 -8 7 -16 9 -19 6 -3 -2 -8 2 -12 11 -4 13 -1 15 14 10 36 -11 21
5 -22 26 l-43 20 35 -7 c19 -3 38 -8 42 -11z m71 1 c26 -9 56 -27 67 -41 27
-35 25 -50 -2 -18 -13 14 -45 37 -73 50 -59 28 -56 31 8 9z m781 4 c-5 -8 -2
-9 11 -4 14 5 16 4 6 -8 -19 -22 -47 -26 -47 -5 0 10 4 16 7 13 4 -2 10 0 14
6 3 5 8 10 11 10 3 0 2 -5 -2 -12z m-928 -59 c8 -17 13 -33 10 -37 -3 -3 -6 0
-6 6 0 7 -18 30 -41 53 -38 38 -38 39 -10 24 17 -8 38 -29 47 -46z m448 16
c32 -21 59 -58 74 -102 14 -43 6 -42 -12 0 -17 43 -84 100 -136 117 -23 8 -43
17 -46 21 -7 12 91 -17 120 -36z m556 31 c0 -8 -4 -18 -10 -21 -5 -3 -10 3
-10 14 0 12 5 21 10 21 6 0 10 -6 10 -14z m31 -9 c-10 -9 -11 -8 -5 6 3 10 9
15 12 12 3 -3 0 -11 -7 -18z m-1075 -28 c3 -6 -5 -3 -20 6 -14 10 -26 19 -26
22 0 7 39 -17 46 -28z m684 -3 c22 -14 40 -31 40 -37 0 -6 -13 -1 -29 10 -32
23 -46 27 -35 10 3 -6 -12 1 -33 14 -22 14 -51 28 -64 30 -13 3 0 4 28 3 37
-2 65 -11 93 -30z m424 19 c-4 -8 -8 -15 -10 -15 -2 0 -4 7 -4 15 0 8 4 15 10
15 5 0 7 -7 4 -15z m-873 -34 c16 -16 29 -35 29 -43 0 -7 -12 2 -26 19 -14 18
-33 37 -42 43 -11 6 -12 9 -4 10 8 0 27 -13 43 -29z m207 2 c18 -9 46 -32 62
-52 40 -48 38 -61 -2 -16 -17 20 -56 50 -87 66 -56 29 -36 31 27 2z m163 -4
l24 -20 -30 17 c-39 24 -40 24 -28 24 6 0 21 -9 34 -21z m-200 -116 c11 -18
18 -39 16 -46 -4 -8 -6 -7 -6 3 -1 8 -26 41 -56 72 -30 31 -55 61 -55 67 0 15
78 -59 101 -96z m-231 30 c15 -19 20 -39 19 -77 l-1 -51 -10 45 c-5 25 -15 50
-20 55 -8 7 -8 6 -3 -4 5 -9 4 -12 -3 -7 -7 4 -12 13 -12 21 0 7 -11 27 -25
43 -14 17 -25 33 -25 37 0 11 58 -34 80 -62z m956 34 c58 -29 78 -49 99 -100
19 -46 4 -49 -18 -3 -33 70 -120 114 -227 116 -43 1 -58 4 -45 9 39 16 140 4
191 -22z m-864 -46 c26 -17 53 -41 59 -53 13 -25 29 -142 18 -131 -4 5 -10 28
-13 52 -6 54 -22 78 -81 127 -25 20 -51 47 -56 58 l-10 21 18 -21 c10 -12 39
-35 65 -53z m207 38 c11 -19 9 -18 -18 2 -36 26 -37 29 -13 22 10 -2 24 -13
31 -24z m428 25 c-3 -3 -12 -4 -19 -1 -8 3 -5 6 6 6 11 1 17 -2 13 -5z m345
-34 l-9 -24 -5 22 c-4 12 -2 20 3 16 5 -3 9 0 9 7 0 7 2 10 5 7 3 -3 2 -16 -3
-28z m43 20 c-3 -5 1 -10 10 -10 14 0 14 -3 -2 -23 -9 -13 -23 -24 -29 -24
-14 0 -10 33 7 53 13 16 23 19 14 4z m-800 -64 c28 -14 57 -31 65 -38 30 -25
67 -83 77 -123 28 -100 31 -115 23 -110 -5 3 -18 36 -31 73 -27 84 -60 130
-122 173 -26 19 -58 43 -70 54 -13 11 -16 15 -7 9 8 -7 38 -23 65 -38z m626
29 c37 -20 76 -62 88 -97 13 -38 -4 -45 -19 -8 -22 53 -70 92 -145 117 l-40
13 44 -5 c24 -3 56 -12 72 -20z m217 0 c-6 -14 -15 -25 -20 -25 -9 0 -4 14 15
38 15 19 18 14 5 -13z m-625 8 c-7 -2 -19 -2 -25 0 -7 3 -2 5 12 5 14 0 19 -2
13 -5z m190 -22 c28 -14 51 -35 65 -60 31 -55 27 -61 -8 -13 -43 60 -87 79
-187 81 -24 1 -43 6 -43 12 0 18 125 3 173 -20z m-504 -56 c-3 -2 -16 10 -29
28 l-23 32 29 -27 c15 -15 26 -30 23 -33z m-521 27 c2 -7 -3 -12 -12 -12 -9 0
-16 7 -16 16 0 17 22 14 28 -4z m32 8 c0 -5 -5 -10 -11 -10 -5 0 -7 5 -4 10 3
6 8 10 11 10 2 0 4 -4 4 -10z m399 -82 c13 -38 5 -36 -15 5 -10 17 -19 27 -21
20 -2 -7 1 -21 7 -32 6 -12 8 -21 6 -21 -3 0 -15 19 -27 42 -17 33 -18 40 -5
29 24 -20 20 -1 -6 28 -13 14 -6 11 14 -8 20 -19 42 -47 47 -63z m787 76 c53
-25 119 -114 85 -114 -5 0 -12 8 -16 18 -10 31 -67 85 -104 98 -20 7 -28 13
-18 14 11 0 34 -7 53 -16z m-1009 -31 c-3 -10 -5 -4 -5 12 0 17 2 24 5 18 2
-7 2 -21 0 -30z m785 27 c20 -6 48 -24 62 -41 37 -44 32 -54 -8 -16 -32 31
-54 40 -161 61 -11 2 0 4 25 5 25 0 62 -4 82 -9z m-1131 -14 c5 3 9 -2 9 -10
0 -8 -10 -20 -22 -27 -18 -10 -20 -9 -15 6 4 9 7 24 8 33 0 11 2 12 6 4 2 -6
9 -10 14 -6z m99 10 c0 -3 -4 -8 -10 -11 -5 -3 -10 -1 -10 4 0 6 5 11 10 11 6
0 10 -2 10 -4z m130 -6 c0 -5 -5 -10 -11 -10 -5 0 -7 5 -4 10 3 6 8 10 11 10
2 0 4 -4 4 -10z m577 -73 c16 -23 39 -69 52 -101 20 -54 20 -58 3 -43 -10 9
-26 39 -36 66 -10 28 -31 68 -47 90 -16 22 -22 38 -15 35 7 -3 27 -24 43 -47z
m306 39 c40 -15 77 -43 77 -58 0 -5 -15 2 -32 15 -18 13 -53 29 -78 36 -25 8
-49 15 -55 16 -5 2 4 4 20 4 17 0 47 -6 68 -13z m-1202 -10 c5 3 9 -2 9 -10 0
-9 -7 -16 -15 -16 -9 0 -15 9 -14 23 0 12 3 16 6 9 2 -6 9 -10 14 -6z m40 -11
c5 3 6 -1 3 -9 -8 -22 -24 -10 -23 17 1 17 2 18 6 4 2 -9 9 -15 14 -12z m239
4 c27 -5 18 -7 -36 -7 -73 0 -100 -10 -151 -56 -13 -11 -23 -15 -23 -8 0 16
71 71 105 81 17 5 39 6 50 3 11 -3 36 -9 55 -13z m-310 -4 c0 -8 -4 -15 -10
-15 -5 0 -10 7 -10 15 0 8 5 15 10 15 6 0 10 -7 10 -15z m-110 -34 c0 -8 -3
-12 -6 -8 -3 3 -14 -3 -25 -14 -10 -10 -28 -19 -38 -19 -11 0 -22 -6 -24 -12
-4 -8 -6 -7 -6 4 -1 9 -4 24 -7 32 -5 12 -2 15 12 9 13 -5 16 -3 11 10 -7 18
8 24 18 7 5 -8 11 -8 19 -1 7 6 16 7 20 3 4 -4 7 -2 6 3 -1 6 -2 15 -1 20 2
14 21 -17 21 -34z m50 29 c6 9 10 11 10 3 0 -13 -38 -38 -46 -30 -3 2 -1 12 2
21 5 14 9 15 15 4 7 -11 11 -10 19 2z m502 -28 c-49 -61 -72 -99 -74 -125 -3
-30 -17 -37 -19 -9 -1 11 -4 8 -8 -8 -5 -14 -7 -33 -5 -43 2 -10 0 -15 -4 -13
-15 9 -12 76 4 108 9 18 31 44 48 58 16 14 39 34 51 46 28 28 33 19 7 -14z
m776 -6 c55 -31 122 -108 122 -142 0 -24 -17 -15 -29 14 -14 34 -74 98 -109
116 -15 8 -53 19 -85 27 -32 7 -60 15 -62 19 -7 11 133 -19 163 -34z m-868 13
c0 -3 -16 -13 -35 -22 -19 -9 -35 -12 -35 -7 0 12 -29 2 -52 -18 -23 -19 -23
-9 -1 13 13 14 14 18 3 25 -9 6 -6 9 11 12 38 5 109 4 109 -3z m95 -65 c-21
-37 -41 -78 -46 -93 -7 -21 -8 -18 -5 16 3 28 15 56 40 89 20 26 36 51 36 57
0 6 3 8 6 4 4 -3 -11 -36 -31 -73z m1060 52 c8 -13 13 -31 9 -40 -8 -21 -17
-20 -31 4 -11 16 -10 18 2 14 18 -7 19 0 5 27 -15 27 -4 24 15 -5z m-596 -42
c24 -50 22 -71 -2 -32 -15 23 -31 78 -23 78 2 0 14 -21 25 -46z m-894 26 c-3
-5 -13 -10 -21 -10 -22 0 -75 -29 -106 -58 -22 -20 -28 -22 -28 -10 0 20 60
59 115 75 22 6 41 11 43 12 2 1 0 -3 -3 -9z m-237 -25 c-3 -3 -9 2 -12 12 -6
14 -5 15 5 6 7 -7 10 -15 7 -18z m851 -53 c-1 -55 3 -87 15 -110 24 -46 20
-52 -8 -11 -13 19 -26 49 -27 65 -4 31 10 134 17 134 3 0 4 -35 3 -78z m551
54 c43 -15 97 -61 116 -98 22 -43 -2 -44 -29 -1 -35 55 -69 83 -118 98 -24 8
-35 14 -24 14 11 0 36 -6 55 -13z m276 -22 c18 -15 18 -15 -6 -10 -14 3 -43 6
-65 6 -25 0 -35 3 -27 9 22 14 78 11 98 -5z m-1526 -24 c-35 -30 -57 -39 -44
-19 6 10 64 49 74 49 2 0 -11 -13 -30 -30z m589 -12 c-6 -12 -31 -49 -55 -81
-24 -32 -49 -73 -55 -92 -16 -43 -33 -46 -24 -4 6 25 4 30 -6 24 -8 -4 5 12
27 36 23 24 53 64 68 89 14 25 26 38 27 30 0 -9 4 -6 11 8 6 12 13 20 15 18 3
-2 -1 -15 -8 -28z m-544 10 c-11 -6 -26 -20 -33 -30 -14 -20 -32 -24 -32 -8 0
11 59 50 75 50 6 0 1 -6 -10 -12z m750 -102 c-4 -34 -7 -77 -7 -96 0 -27 -2
-30 -8 -15 -4 11 -5 52 -3 92 3 53 0 80 -12 105 l-16 33 27 -29 c25 -28 26
-34 19 -90z m465 94 c46 -23 88 -76 72 -92 -7 -7 -15 -1 -25 18 -19 36 -54 70
-87 83 -14 5 -19 10 -12 10 7 1 30 -8 52 -19z m-962 -5 c3 -3 -24 -5 -59 -6
-92 -1 -128 -10 -176 -44 -13 -10 -23 -12 -27 -6 -7 11 43 49 82 62 27 8 170
4 180 -6z m1203 6 c-12 -8 -51 -4 -51 5 0 2 15 4 33 4 22 0 28 -3 18 -9z
m-994 -31 c-7 -17 -13 -26 -15 -21 -3 10 15 51 22 51 3 0 -1 -14 -7 -30z m245
-15 c3 -13 2 -22 -2 -20 -4 3 -10 16 -12 30 -3 13 -2 22 2 20 4 -3 10 -16 12
-30z m484 -45 c24 -25 30 -40 17 -40 -9 0 -93 95 -93 104 0 7 45 -30 76 -64z
m-947 44 c2 -2 -26 -4 -62 -4 -49 0 -75 -5 -99 -20 -37 -23 -48 -25 -48 -10 0
6 19 20 43 30 33 16 55 19 102 14 33 -3 62 -8 64 -10z m608 -6 c-3 -8 -6 -5
-6 6 -1 11 2 17 5 13 3 -3 4 -12 1 -19z m-23 -57 c4 -35 12 -73 17 -83 14 -27
1 -38 -17 -14 -14 20 -16 32 -16 81 0 103 7 110 16 16z m236 -40 c20 -38 -2
-25 -65 36 -36 36 -65 67 -65 69 0 10 120 -88 130 -105z m-529 67 c-12 -18
-31 -54 -44 -80 -27 -58 -56 -68 -32 -11 9 21 22 44 29 53 7 8 24 27 36 43 32
37 36 34 11 -5z m-297 -1 c-8 -5 -25 -7 -38 -5 -13 1 -39 -6 -59 -17 -28 -15
-39 -17 -49 -7 -9 9 -4 15 23 26 35 15 149 18 123 3z m548 -12 c-2 -14 1 -46
7 -72 8 -29 9 -49 3 -55 -19 -19 -33 115 -16 143 9 15 11 10 6 -16z m-395 -7
c-3 -8 -6 -5 -6 6 -1 11 2 17 5 13 3 -3 4 -12 1 -19z m-127 -28 c-35 -29 -60
-38 -60 -21 0 8 77 51 90 51 3 0 -11 -14 -30 -30z m268 -27 c-30 -60 -56 -86
-38 -38 9 22 58 95 65 95 1 0 -11 -26 -27 -57z m332 39 c0 -10 9 -34 19 -55
14 -27 15 -37 6 -37 -7 0 -16 10 -20 23 -18 59 -22 87 -14 87 5 0 9 -8 9 -18z
m108 -6 c43 -27 66 -52 55 -59 -4 -3 -30 15 -56 39 -55 49 -54 55 1 20z m196
-18 c-4 -6 -10 -5 -15 3 -14 22 -10 33 6 19 8 -7 12 -17 9 -22z m-869 -8 c-10
-11 -23 -20 -29 -20 -6 0 0 9 14 20 32 25 38 25 15 0z m350 -17 c25 -38 32
-63 17 -63 -7 0 -52 82 -52 95 0 13 11 2 35 -32z m479 21 c3 -8 2 -12 -4 -9
-6 3 -10 10 -10 16 0 14 7 11 14 -7z m-144 -46 c0 -16 -17 -7 -46 23 l-29 32
37 -24 c21 -13 38 -27 38 -31z m-660 18 c0 -3 -4 -8 -10 -11 -5 -3 -10 -1 -10
4 0 6 5 11 10 11 6 0 10 -2 10 -4z m258 -42 c-3 -14 -5 -12 -10 9 -3 19 -2 25
4 19 6 -6 8 -18 6 -28z m42 0 c0 -8 -4 -12 -10 -9 -5 3 -10 13 -10 21 0 8 5
12 10 9 6 -3 10 -13 10 -21z"/>
<path d="M3540 2139 c0 -5 5 -7 10 -4 6 3 10 8 10 11 0 2 -4 4 -10 4 -5 0 -10
-5 -10 -11z"/>
<path d="M2098 1673 c7 -3 16 -2 19 1 4 3 -2 6 -13 5 -11 0 -14 -3 -6 -6z"/>
<path d="M1238 1463 c6 -2 18 -2 25 0 6 3 1 5 -13 5 -14 0 -19 -2 -12 -5z"/>
<path d="M1357 3239 c-31 -28 -55 -55 -52 -60 4 -5 -2 -6 -11 -2 -13 5 -16 3
-11 -10 3 -9 1 -19 -5 -23 -7 -4 -8 -3 -4 4 4 7 4 12 -1 12 -14 -1 -156 -188
-206 -272 -27 -44 -46 -87 -43 -95 3 -8 2 -12 -3 -9 -14 9 -94 -181 -107 -254
-3 -14 -10 -45 -15 -70 -14 -60 -20 -228 -9 -235 5 -3 8 23 7 57 -1 57 5 120
18 188 8 40 44 162 50 168 9 9 5 -14 -9 -54 -28 -79 -50 -264 -32 -264 6 0 4
-5 -4 -10 -10 -6 -11 -10 -2 -10 6 0 12 -9 12 -20 0 -11 -6 -20 -12 -20 -10 0
-10 -2 0 -9 7 -4 12 -12 11 -17 -1 -5 -1 -22 0 -38 2 -52 10 -23 16 59 10 132
22 161 17 40 -2 -60 -1 -107 3 -103 4 4 9 42 11 84 5 112 13 103 13 -16 0 -57
4 -107 8 -111 4 -4 8 22 9 59 0 37 4 95 7 129 5 36 4 64 -2 67 -5 4 -12 -2
-14 -11 -2 -10 -4 -2 -4 17 0 19 -3 45 -7 57 -4 12 0 43 9 71 13 38 25 54 55
73 47 29 63 66 47 108 -9 25 -8 37 8 68 10 21 20 48 22 60 2 12 10 34 18 50 8
15 15 35 15 44 0 9 7 22 16 29 16 14 38 50 30 50 -9 0 -93 -125 -128 -190 -66
-123 -126 -314 -142 -450 -2 -19 -2 -3 0 35 2 39 11 97 21 130 9 33 17 75 17
93 0 18 3 27 7 21 4 -7 11 3 19 25 6 19 8 41 4 47 -5 8 -3 9 6 4 10 -6 12 -4
6 11 -4 10 -4 15 0 11 4 -4 25 27 46 70 51 101 111 184 208 286 44 46 76 87
72 91 -4 4 -2 7 3 5 15 -3 45 12 45 23 0 5 -6 6 -12 3 -7 -4 -6 -1 2 7 18 15
44 48 39 48 -2 0 -30 -23 -62 -51z m-385 -821 c-6 -6 -7 0 -4 19 5 21 7 23 10
9 2 -10 0 -22 -6 -28z"/>
<path d="M1296 3119 c-25 -22 -46 -44 -46 -49 0 -18 76 30 93 59 25 42 9 39
-47 -10z"/>
<path d="M3260 3070 c0 -7 15 -31 33 -54 86 -105 190 -307 222 -429 10 -37 22
-70 26 -73 23 -14 -48 187 -106 301 -60 119 -175 286 -175 255z"/>
<path d="M3250 3037 c0 -4 19 -33 41 -63 23 -30 59 -86 79 -125 21 -39 40 -67
43 -62 9 14 -78 163 -124 215 -21 23 -39 39 -39 35z"/>
<path d="M3216 3005 c6 -16 44 -41 44 -30 0 4 -5 15 -10 26 -13 23 -42 26 -34
4z"/>
<path d="M3340 2820 c6 -11 12 -20 14 -20 2 0 2 9 -1 20 -3 11 -9 20 -15 20
-5 0 -4 -9 2 -20z"/>
<path d="M3472 2583 c5 -21 14 -60 19 -88 6 -27 14 -54 18 -58 5 -4 0 29 -10
75 -10 46 -18 89 -18 96 -1 6 -5 12 -10 12 -5 0 -5 -16 1 -37z"/>
<path d="M3360 2502 c0 -5 4 -33 10 -63 5 -30 11 -76 14 -102 2 -27 6 -51 10
-54 3 -3 3 16 1 43 -7 68 -26 184 -31 184 -2 0 -4 -4 -4 -8z"/>
<path d="M3334 2478 c3 -13 8 -44 12 -70 3 -27 11 -48 16 -48 6 0 8 7 4 15 -3
8 -8 37 -12 65 -4 28 -11 53 -15 56 -5 3 -7 -5 -5 -18z"/>
<path d="M3542 2480 c0 -14 2 -19 5 -12 2 6 2 18 0 25 -3 6 -5 1 -5 -13z"/>
<path d="M3312 2448 c5 -23 13 -73 18 -112 l9 -71 -4 75 c-5 91 -15 150 -25
150 -4 0 -4 -19 2 -42z"/>
<path d="M2923 2407 c11 -34 22 -77 25 -94 2 -18 8 -33 12 -33 9 0 6 20 -22
112 -11 37 -23 70 -28 73 -4 3 1 -23 13 -58z"/>
<path d="M2874 2444 c20 -48 49 -163 56 -223 l9 -66 -4 75 c-5 84 -5 83 -28
162 -10 31 -22 60 -29 64 -8 5 -9 2 -4 -12z"/>
<path d="M3136 2405 c27 -117 35 -161 37 -220 1 -24 4 -42 8 -39 12 7 -4 149
-26 244 -2 8 -4 20 -4 26 -1 5 -7 19 -15 30 -13 16 -13 11 0 -41z"/>
<path d="M3200 2435 c-6 -8 -9 -18 -6 -23 14 -24 36 -162 37 -235 1 -104 18
-81 21 28 l2 80 6 -75 c4 -41 8 -66 9 -55 8 65 23 90 19 32 -3 -50 9 -57 17
-9 7 43 -2 141 -20 212 -14 55 -18 60 -45 60 -15 0 -33 -7 -40 -15z m87 -197
c-3 -8 -6 -5 -6 6 -1 11 2 17 5 13 3 -3 4 -12 1 -19z"/>
<path d="M2854 2427 c15 -45 46 -178 46 -201 0 -14 4 -26 9 -26 15 0 -33 217
-52 235 -7 7 -8 4 -3 -8z"/>
<path d="M2987 2368 c14 -40 28 -113 32 -163 7 -79 8 -83 11 -35 1 30 2 57 2
60 1 3 -2 25 -5 50 -4 30 -3 38 3 25 5 -11 9 -33 9 -48 1 -20 5 -26 14 -21 9
6 9 5 -1 -8 -10 -12 -10 -17 1 -27 14 -11 27 -6 27 11 0 5 -6 6 -12 2 -10 -5
-10 -4 -2 5 12 13 1 118 -20 178 -11 32 -17 38 -48 41 l-35 3 24 -73z"/>
<path d="M3094 2420 c3 -14 12 -52 20 -86 9 -33 17 -86 20 -118 2 -31 7 -60
11 -64 19 -19 -25 242 -47 278 -7 11 -8 8 -4 -10z"/>
<path d="M2780 2395 c-9 -11 -8 -25 6 -67 11 -34 18 -85 18 -140 1 -49 4 -88
7 -88 12 0 18 53 15 130 -2 56 -1 66 5 40 11 -48 13 -108 5 -150 -6 -29 -5
-32 5 -16 24 39 12 190 -23 279 -12 31 -20 33 -38 12z"/>
<path d="M1035 2360 c-3 -5 -1 -10 4 -10 6 0 11 5 11 10 0 6 -2 10 -4 10 -3 0
-8 -4 -11 -10z"/>
<path d="M2680 2355 c0 -5 7 -38 15 -73 17 -71 22 -163 10 -183 -6 -11 -5 -11
5 -2 16 15 16 100 0 179 -11 54 -29 102 -30 79z"/>
<path d="M1031 2255 c1 -39 6 -81 10 -95 4 -15 7 12 5 62 -1 49 -6 91 -10 95
-4 4 -6 -24 -5 -62z"/>
<path d="M2575 2273 c4 -21 8 -47 9 -59 2 -11 7 -27 11 -34 5 -9 4 -11 -3 -6
-15 9 -15 1 -1 -22 9 -14 9 -26 1 -48 -11 -28 -11 -27 -7 11 l4 40 -10 -37
c-7 -25 -7 -43 -1 -55 10 -16 12 -15 23 12 16 40 23 152 12 195 -6 21 -16 36
-27 38 -16 4 -18 -1 -11 -35z"/>
<path d="M1811 2262 c-16 -64 -21 -103 -13 -98 4 2 9 -5 9 -17 2 -17 0 -19 -7
-7 -8 13 -10 13 -10 -1 0 -9 7 -19 15 -23 8 -3 15 -16 15 -30 0 -14 3 -27 8
-29 4 -3 7 32 7 76 0 45 4 98 8 118 7 29 6 37 -7 42 -11 5 -18 -3 -25 -31z"/>
<path d="M1154 2277 c-10 -6 -22 -15 -27 -21 -10 -14 -7 -167 4 -161 4 3 6 21
5 39 -2 19 0 52 4 73 7 35 8 34 10 -22 2 -64 9 -117 15 -124 3 -2 3 20 2 50
-1 30 0 72 4 94 5 32 6 24 8 -37 2 -112 16 -103 18 12 2 104 -4 118 -43 97z"/>
<path d="M1526 2259 c-8 -40 -6 -146 3 -178 3 -13 7 28 7 92 0 65 -1 117 -2
117 -1 0 -4 -14 -8 -31z"/>
<path d="M1713 2257 c-10 -33 -8 -175 2 -186 3 -3 5 22 4 55 -2 32 1 83 5 112
9 59 4 68 -11 19z"/>
<path d="M1439 2263 c0 -10 -2 -37 -4 -60 -1 -24 0 -43 4 -43 4 0 8 27 9 60 1
33 0 60 -3 60 -3 0 -5 -8 -6 -17z"/>
<path d="M1267 2263 c-4 -3 -7 -21 -7 -39 0 -26 -4 -32 -15 -28 -12 5 -15 -5
-15 -54 0 -34 3 -63 8 -65 4 -3 5 22 4 55 -3 40 0 58 7 54 5 -4 7 -14 4 -24
-3 -9 -3 -14 1 -10 5 4 10 24 12 45 3 21 6 46 8 56 4 18 3 21 -7 10z"/>
<path d="M1343 2243 c-11 -44 -7 -178 6 -199 11 -18 11 -17 6 4 -4 12 -2 22 4
22 5 0 11 -15 13 -32 2 -18 4 27 5 100 1 107 -2 132 -13 132 -7 0 -17 -12 -21
-27z m14 -135 c-2 -18 -4 -6 -4 27 0 33 2 48 4 33 2 -15 2 -42 0 -60z"/>
<path d="M1588 2238 c-3 -65 4 -153 13 -168 8 -13 9 -13 8 0 -4 37 4 42 15 8
10 -32 11 -23 11 78 0 112 0 114 -22 114 -19 0 -23 -6 -25 -32z m29 -100 c-2
-13 -4 -5 -4 17 -1 22 1 32 4 23 2 -10 2 -28 0 -40z"/>
<path d="M2963 2205 c0 -38 2 -53 4 -32 2 20 2 52 0 70 -2 17 -4 1 -4 -38z"/>
<path d="M1073 2245 c0 -8 4 -15 9 -15 4 0 8 7 8 15 0 8 -4 15 -8 15 -5 0 -9
-7 -9 -15z"/>
<path d="M1238 2237 c-3 -19 -2 -25 4 -19 6 6 8 18 6 28 -3 14 -5 12 -10 -9z"/>
<path d="M1287 2253 c-2 -4 -5 -48 -5 -98 l0 -90 8 95 c7 93 7 110 -3 93z"/>
<path d="M1462 2215 c0 -16 2 -22 5 -12 2 9 2 23 0 30 -3 6 -5 -1 -5 -18z"/>
<path d="M1070 2210 c0 -5 5 -10 10 -10 6 0 10 5 10 10 0 6 -4 10 -10 10 -5 0
-10 -4 -10 -10z"/>
<path d="M1083 2150 c0 -25 2 -35 4 -22 2 12 2 32 0 45 -2 12 -4 2 -4 -23z"/>
<path d="M3047 2168 c-3 -10 -1 -16 4 -12 5 3 9 -3 9 -12 0 -23 6 -15 13 17 8
30 -18 38 -26 7z"/>
<path d="M1462 2160 c0 -14 2 -19 5 -12 2 6 2 18 0 25 -3 6 -5 1 -5 -13z"/>
<path d="M2901 2164 c0 -11 3 -14 6 -6 3 7 2 16 -1 19 -3 4 -6 -2 -5 -13z"/>
<path d="M1438 2115 c2 -19 6 -35 8 -35 2 0 4 16 4 35 0 19 -4 35 -8 35 -4 0
-6 -16 -4 -35z"/>
<path d="M1256 2093 c10 -40 15 -42 12 -5 -1 18 -6 32 -10 32 -5 0 -5 -12 -2
-27z"/>
<path d="M1459 2093 c-3 -18 -2 -30 3 -27 4 3 8 0 8 -7 0 -7 2 -10 4 -8 3 2 1
20 -3 39 l-7 35 -5 -32z"/>
<path d="M1802 2090 c0 -14 2 -19 5 -12 2 6 2 18 0 25 -3 6 -5 1 -5 -13z"/>
<path d="M1291 2044 c0 -11 3 -14 6 -6 3 7 2 16 -1 19 -3 4 -6 -2 -5 -13z"/>
</g>
</svg>
