<svg height="800pt" preserveAspectRatio="xMidYMid meet" viewBox="0 0 800 800" width="800pt" xmlns="http://www.w3.org/2000/svg"><path d="m1727 7912c-21-23-28-68-16-100l10-27-23 22c-27 25-73 39-82 24-4-5-22-7-41-4-26 4-36 2-41-11-5-12-10-13-26-5-28 15-50-5-38-35 6-17 4-28-8-39-28-28-7-54 107-129 51-34 77-46 121-58 46-12 61-24 209-170 42-41 103-97 136-125 33-27 62-53 65-56 11-12 183-130 305-208 72-46 132-87 135-90 3-4 18-15 34-25s61-49 100-87c55-52 72-75 72-96 0-15 4-53 9-83 4-30 9-80 10-110 5-127 20-285 30-300 3-4 15-5 28-3 23 5 24 2 29-59 5-62 33-138 51-138 4 0 17 5 28 10 16 9 19 7 19-12 0-13 24-53 54-91 44-55 94-153 83-163-1-1-24-4-52-8-49-6-76-11-125-21-14-4-36-8-50-11s-33-7-42-10-25-7-35-9c-18-3-72-19-308-89-66-19-153-42-194-52-81-18-79-17-136-29-53-10-65-21-65-59 0-18-6-38-12-45-11-10-8-17 14-34 21-17 25-26 17-39-5-10-11-44-13-77-1-33-10-70-18-83-13-20-13-27-1-56 8-18 11-43 8-54-4-11-9-74-11-141s-9-151-17-187c-11-53-11-67-1-78 11-10 8-21-16-61-123-199-219-507-237-756-11-166-6-426 12-550 2-16 6-46 9-65 2-19 5-39 6-45 6-27-4-48-52-107-29-34-55-65-59-68-10-8-133-190-174-257l-37-62 18-38c12-24 25-37 37-37 12 1 16-3 13-15-13-43-14-70-1-75 8-3 13-18 13-34-1-39 24-88 44-84 11 2 14-4 11-22-7-33 36-146 55-146 10 0 13-7 10-25-3-15 0-29 8-33 7-4 15-18 17-32 11-53 27-82 45-78 14 4 17-3 18-43 1-28 7-54 16-62 8-9 21-36 28-61 7-26 16-49 20-51 4-3 15 12 23 33 30 74 135 290 144 295 5 3 9-4 9-16 1-42 14-212 20-247 31-203 158-539 277-732 28-46 51-61 59-37 2 7 28 12 67 11 44 0 64 4 68 13 2 8 17 14 31 13 35-1 85 11 97 23 5 5 19 9 30 9 36 0 115 31 115 45 0 10 11 13 36 11l36-3 28-109c30-113 93-312 110-342 5-9 30-59 55-110 83-170 222-363 349-485 78-75 202-164 213-154 3 4-1 32-9 63-14 48-14 60-2 82 18 36 18 73-3 123-15 39-15 42 0 51 13 7 39 44 48 70 1 2-6 20-15 42-20 49-20 49 5 36 17-10 23-7 42 17 12 15 22 30 22 33s9 14 20 26 35 38 53 58c19 20 37 36 41 36s5 15 3 33c-3 25 5 46 36 91 21 32 39 71 39 85-1 34 12 72 30 93 12 13 12 24 3 58-6 23-8 49-4 59 11 23 11 35 3 46-5 6-12 30-18 54-9 43-9 43 16 36 31-7 133 31 133 50 0 14 37 31 47 21 3-3 30 8 60 24 31 17 59 28 63 25s21 10 38 29c16 19 39 37 51 41 11 3 21 9 21 13s11 20 25 36c35 41 85 141 85 171 0 20 8 29 40 41 30 12 45 26 55 51 8 19 13 38 11 42-3 4 10 15 28 25 18 9 40 30 49 46 9 15 27 30 39 34 13 3 33 24 46 47 26 45 95 84 173 97 82 14 60 32-131 110-203 83-437 142-635 160-91 8-301 8-390-1-75-7-91-9-200-31-105-21-225-52-299-76l-89-30-29 32c-33 37-34 49-11 85 16 24 16 27-10 77-31 58-72 105-139 159-40 33-48 45-56 90-10 55-8 291 3 342 81 394 160 541 401 752 115 100 330 225 472 272 34 12 85 32 114 45 106 48 267 103 416 142 53 14 128 33 167 44 38 10 90 20 115 23 64 8 81 12 320 84 249 74 511 161 525 174 5 5 15 9 23 9s28 6 45 14c134 61 215 89 256 87 65-3 139 37 205 112 45 52 64 65 111 80 98 30 219 123 292 224 16 23 50 57 74 75 50 39 109 120 109 152 0 38-17 51-62 50-35 0-118-30-171-61-11-7 15 49 39 82 30 41 54 102 54 137 0 29-32 101-54 123-31 31-72 46-139 51-41 2-65 15-166 83-121 82-175 110-316 163-110 41-302 101-365 113-14 3-36 7-50 10-42 8-133 24-175 30-23 3-50 7-60 9-11 2-45 7-75 11-30 5-62 9-70 11-148 25-462 23-626-4-48-8-53-7-77 20-15 15-35 45-46 67-11 21-38 53-60 72-22 18-54 51-70 73-16 23-37 50-48 61-10 12-43 50-73 85-30 36-57 67-60 70-22 18-104 128-121 162-12 23-33 83-46 133-22 82-57 149-102 195-12 12-10 15 19 23 68 17 120 76 120 135 0 100-70 198-172 242-53 23-60 31-58 65 2 23-43 70-86 91s-64 25-126 23c-77-2-147-25-183-59-22-21-39-63-49-121-6-32-12-39-56-58-27-11-55-21-62-21s-37-11-65-25c-43-19-53-29-53-48 0-26-35-43-68-33-10 3-37 2-62-2-41-7-49-5-91 25-58 41-119 63-175 63-37 0-51 7-92 43-109 94-155 122-284 174-60 24-108 52-146 84-31 27-60 49-64 49s-14 22-22 49-21 60-30 73c-8 12-18 43-21 68-7 48-21 80-34 80-4 0-15-8-24-18zm1878-1482c23-30 49-69 58-86 19-38 175-196 217-220 16-10 30-22 30-26s5-8 10-8c6 0 33-16 61-34 44-31 48-36 31-45-51-27-89-20-152 30-19 15-60 37-91 48-30 12-65 32-76 45-12 13-52 42-90 64s-74 51-80 64c-8 15-11 65-9 143 2 66 4 122 5 124 1 6 35-33 86-99z" transform="matrix(.1 0 0 -.1 0 800)"/></svg>